%FSLAX45Y45*%
G04 Gerber Fmt 4.5, Leading zero omitted, Abs format (unit mm)*
G04 Created by KiCad (PCBNEW (5.1.10)-1) date 2021-11-14 07:23:17*
%MOMM*%
%LPD*%
G01*
G04 APERTURE LIST*
%TA.AperFunction,Profile*%
%ADD10C,0.050000*%
%TD*%
%ADD11C,0.200000*%
%ADD12C,0.300000*%
G04 APERTURE END LIST*
D10*
X34200000Y-6100000D02*
X34200000Y-33100000D01*
X33200000Y-5100000D02*
G75*
G02*
X34200000Y-6100000I0J-1000000D01*
G01*
X33200000Y-34100000D02*
X6200000Y-34100000D01*
X34200000Y-33100000D02*
G75*
G02*
X33200000Y-34100000I-1000000J0D01*
G01*
X5200000Y-33100000D02*
X5200000Y-6100000D01*
X6200000Y-34100000D02*
G75*
G02*
X5200000Y-33100000I0J1000000D01*
G01*
X6200000Y-5100000D02*
X33200000Y-5100000D01*
X5200000Y-6100000D02*
G75*
G02*
X6200000Y-5100000I1000000J0D01*
G01*
D11*
X31262102Y-7666397D02*
X31362102Y-7766397D01*
X31362102Y-7666397D02*
X31262102Y-7766397D01*
X31272102Y-7616397D02*
X31272102Y-7816397D01*
X31352102Y-7616397D02*
X31352102Y-7816397D01*
X31272102Y-7816397D02*
G75*
G03*
X31352102Y-7816397I40000J0D01*
G01*
X31352102Y-7616397D02*
G75*
G03*
X31272102Y-7616397I-40000J0D01*
G01*
X31562102Y-7196397D02*
X31662102Y-7296397D01*
X31662102Y-7196397D02*
X31562102Y-7296397D01*
X31512102Y-7286397D02*
X31712102Y-7286397D01*
X31512102Y-7206397D02*
X31712102Y-7206397D01*
X31712102Y-7286397D02*
G75*
G03*
X31712102Y-7206397I0J40000D01*
G01*
X31512102Y-7206397D02*
G75*
G03*
X31512102Y-7286397I0J-40000D01*
G01*
X31862102Y-7666397D02*
X31962102Y-7766397D01*
X31962102Y-7666397D02*
X31862102Y-7766397D01*
X31872102Y-7616397D02*
X31872102Y-7816397D01*
X31952102Y-7616397D02*
X31952102Y-7816397D01*
X31872102Y-7816397D02*
G75*
G03*
X31952102Y-7816397I40000J0D01*
G01*
X31952102Y-7616397D02*
G75*
G03*
X31872102Y-7616397I-40000J0D01*
G01*
X12762400Y-5809620D02*
G75*
G03*
X12762400Y-5809620I-52000J0D01*
G01*
X12762400Y-8349620D02*
G75*
G03*
X12762400Y-8349620I-52000J0D01*
G01*
X13016400Y-5809620D02*
G75*
G03*
X13016400Y-5809620I-52000J0D01*
G01*
X13016400Y-8349620D02*
G75*
G03*
X13016400Y-8349620I-52000J0D01*
G01*
X13270400Y-5809620D02*
G75*
G03*
X13270400Y-5809620I-52000J0D01*
G01*
X13270400Y-8349620D02*
G75*
G03*
X13270400Y-8349620I-52000J0D01*
G01*
X13524400Y-5809620D02*
G75*
G03*
X13524400Y-5809620I-52000J0D01*
G01*
X13524400Y-8349620D02*
G75*
G03*
X13524400Y-8349620I-52000J0D01*
G01*
X13778400Y-5809620D02*
G75*
G03*
X13778400Y-5809620I-52000J0D01*
G01*
X13778400Y-8349620D02*
G75*
G03*
X13778400Y-8349620I-52000J0D01*
G01*
X14032400Y-5809620D02*
G75*
G03*
X14032400Y-5809620I-52000J0D01*
G01*
X14032400Y-8349620D02*
G75*
G03*
X14032400Y-8349620I-52000J0D01*
G01*
X14286400Y-5809620D02*
G75*
G03*
X14286400Y-5809620I-52000J0D01*
G01*
X14286400Y-8349620D02*
G75*
G03*
X14286400Y-8349620I-52000J0D01*
G01*
X14540400Y-5809620D02*
G75*
G03*
X14540400Y-5809620I-52000J0D01*
G01*
X14540400Y-8349620D02*
G75*
G03*
X14540400Y-8349620I-52000J0D01*
G01*
X14794400Y-5809620D02*
G75*
G03*
X14794400Y-5809620I-52000J0D01*
G01*
X14794400Y-8349620D02*
G75*
G03*
X14794400Y-8349620I-52000J0D01*
G01*
X15048400Y-5809620D02*
G75*
G03*
X15048400Y-5809620I-52000J0D01*
G01*
X15048400Y-8349620D02*
G75*
G03*
X15048400Y-8349620I-52000J0D01*
G01*
X15302400Y-5809620D02*
G75*
G03*
X15302400Y-5809620I-52000J0D01*
G01*
X15302400Y-8349620D02*
G75*
G03*
X15302400Y-8349620I-52000J0D01*
G01*
X15556400Y-5809620D02*
G75*
G03*
X15556400Y-5809620I-52000J0D01*
G01*
X15556400Y-8349620D02*
G75*
G03*
X15556400Y-8349620I-52000J0D01*
G01*
X15810400Y-5809620D02*
G75*
G03*
X15810400Y-5809620I-52000J0D01*
G01*
X15810400Y-8349620D02*
G75*
G03*
X15810400Y-8349620I-52000J0D01*
G01*
X16064400Y-5809620D02*
G75*
G03*
X16064400Y-5809620I-52000J0D01*
G01*
X16064400Y-8349620D02*
G75*
G03*
X16064400Y-8349620I-52000J0D01*
G01*
X16318400Y-5809620D02*
G75*
G03*
X16318400Y-5809620I-52000J0D01*
G01*
X16318400Y-8349620D02*
G75*
G03*
X16318400Y-8349620I-52000J0D01*
G01*
X16572400Y-5809620D02*
G75*
G03*
X16572400Y-5809620I-52000J0D01*
G01*
X16572400Y-8349620D02*
G75*
G03*
X16572400Y-8349620I-52000J0D01*
G01*
X16826400Y-5809620D02*
G75*
G03*
X16826400Y-5809620I-52000J0D01*
G01*
X16826400Y-8349620D02*
G75*
G03*
X16826400Y-8349620I-52000J0D01*
G01*
X17080400Y-5809620D02*
G75*
G03*
X17080400Y-5809620I-52000J0D01*
G01*
X17080400Y-8349620D02*
G75*
G03*
X17080400Y-8349620I-52000J0D01*
G01*
X17334400Y-5809620D02*
G75*
G03*
X17334400Y-5809620I-52000J0D01*
G01*
X17334400Y-8349620D02*
G75*
G03*
X17334400Y-8349620I-52000J0D01*
G01*
X8700000Y-9925000D02*
X8700000Y-10075000D01*
X8625000Y-10000000D02*
X8775000Y-10000000D01*
X8700000Y-12925000D02*
X8700000Y-13075000D01*
X8625000Y-13000000D02*
X8775000Y-13000000D01*
X8700000Y-15925000D02*
X8700000Y-16075000D01*
X8625000Y-16000000D02*
X8775000Y-16000000D01*
X8700000Y-18925000D02*
X8700000Y-19075000D01*
X8625000Y-19000000D02*
X8775000Y-19000000D01*
X8700000Y-20125000D02*
X8700000Y-20275000D01*
X8625000Y-20200000D02*
X8775000Y-20200000D01*
X8700000Y-23125000D02*
X8700000Y-23275000D01*
X8625000Y-23200000D02*
X8775000Y-23200000D01*
X8700000Y-26125000D02*
X8700000Y-26275000D01*
X8625000Y-26200000D02*
X8775000Y-26200000D01*
X8700000Y-29125000D02*
X8700000Y-29275000D01*
X8625000Y-29200000D02*
X8775000Y-29200000D01*
X9200000Y-9925000D02*
X9200000Y-10075000D01*
X9125000Y-10000000D02*
X9275000Y-10000000D01*
X9200000Y-12925000D02*
X9200000Y-13075000D01*
X9125000Y-13000000D02*
X9275000Y-13000000D01*
X9200000Y-15925000D02*
X9200000Y-16075000D01*
X9125000Y-16000000D02*
X9275000Y-16000000D01*
X9200000Y-18925000D02*
X9200000Y-19075000D01*
X9125000Y-19000000D02*
X9275000Y-19000000D01*
X9200000Y-20125000D02*
X9200000Y-20275000D01*
X9125000Y-20200000D02*
X9275000Y-20200000D01*
X9200000Y-23125000D02*
X9200000Y-23275000D01*
X9125000Y-23200000D02*
X9275000Y-23200000D01*
X9200000Y-26125000D02*
X9200000Y-26275000D01*
X9125000Y-26200000D02*
X9275000Y-26200000D01*
X9200000Y-29125000D02*
X9200000Y-29275000D01*
X9125000Y-29200000D02*
X9275000Y-29200000D01*
X9700000Y-9925000D02*
X9700000Y-10075000D01*
X9625000Y-10000000D02*
X9775000Y-10000000D01*
X9700000Y-12925000D02*
X9700000Y-13075000D01*
X9625000Y-13000000D02*
X9775000Y-13000000D01*
X9700000Y-15925000D02*
X9700000Y-16075000D01*
X9625000Y-16000000D02*
X9775000Y-16000000D01*
X9700000Y-18925000D02*
X9700000Y-19075000D01*
X9625000Y-19000000D02*
X9775000Y-19000000D01*
X9700000Y-20125000D02*
X9700000Y-20275000D01*
X9625000Y-20200000D02*
X9775000Y-20200000D01*
X9700000Y-23125000D02*
X9700000Y-23275000D01*
X9625000Y-23200000D02*
X9775000Y-23200000D01*
X9700000Y-26125000D02*
X9700000Y-26275000D01*
X9625000Y-26200000D02*
X9775000Y-26200000D01*
X9700000Y-29125000D02*
X9700000Y-29275000D01*
X9625000Y-29200000D02*
X9775000Y-29200000D01*
X11700000Y-9925000D02*
X11700000Y-10075000D01*
X11625000Y-10000000D02*
X11775000Y-10000000D01*
X11700000Y-12925000D02*
X11700000Y-13075000D01*
X11625000Y-13000000D02*
X11775000Y-13000000D01*
X11700000Y-15925000D02*
X11700000Y-16075000D01*
X11625000Y-16000000D02*
X11775000Y-16000000D01*
X11700000Y-18925000D02*
X11700000Y-19075000D01*
X11625000Y-19000000D02*
X11775000Y-19000000D01*
X11700000Y-20125000D02*
X11700000Y-20275000D01*
X11625000Y-20200000D02*
X11775000Y-20200000D01*
X11700000Y-23125000D02*
X11700000Y-23275000D01*
X11625000Y-23200000D02*
X11775000Y-23200000D01*
X11700000Y-26125000D02*
X11700000Y-26275000D01*
X11625000Y-26200000D02*
X11775000Y-26200000D01*
X11700000Y-29125000D02*
X11700000Y-29275000D01*
X11625000Y-29200000D02*
X11775000Y-29200000D01*
X12200000Y-9925000D02*
X12200000Y-10075000D01*
X12125000Y-10000000D02*
X12275000Y-10000000D01*
X12200000Y-12925000D02*
X12200000Y-13075000D01*
X12125000Y-13000000D02*
X12275000Y-13000000D01*
X12200000Y-15925000D02*
X12200000Y-16075000D01*
X12125000Y-16000000D02*
X12275000Y-16000000D01*
X12200000Y-18925000D02*
X12200000Y-19075000D01*
X12125000Y-19000000D02*
X12275000Y-19000000D01*
X12200000Y-20125000D02*
X12200000Y-20275000D01*
X12125000Y-20200000D02*
X12275000Y-20200000D01*
X12200000Y-23125000D02*
X12200000Y-23275000D01*
X12125000Y-23200000D02*
X12275000Y-23200000D01*
X12200000Y-26125000D02*
X12200000Y-26275000D01*
X12125000Y-26200000D02*
X12275000Y-26200000D01*
X12200000Y-29125000D02*
X12200000Y-29275000D01*
X12125000Y-29200000D02*
X12275000Y-29200000D01*
X12700000Y-9925000D02*
X12700000Y-10075000D01*
X12625000Y-10000000D02*
X12775000Y-10000000D01*
X12700000Y-12925000D02*
X12700000Y-13075000D01*
X12625000Y-13000000D02*
X12775000Y-13000000D01*
X12700000Y-15925000D02*
X12700000Y-16075000D01*
X12625000Y-16000000D02*
X12775000Y-16000000D01*
X12700000Y-18925000D02*
X12700000Y-19075000D01*
X12625000Y-19000000D02*
X12775000Y-19000000D01*
X12700000Y-20125000D02*
X12700000Y-20275000D01*
X12625000Y-20200000D02*
X12775000Y-20200000D01*
X12700000Y-23125000D02*
X12700000Y-23275000D01*
X12625000Y-23200000D02*
X12775000Y-23200000D01*
X12700000Y-26125000D02*
X12700000Y-26275000D01*
X12625000Y-26200000D02*
X12775000Y-26200000D01*
X12700000Y-29125000D02*
X12700000Y-29275000D01*
X12625000Y-29200000D02*
X12775000Y-29200000D01*
X14700000Y-9925000D02*
X14700000Y-10075000D01*
X14625000Y-10000000D02*
X14775000Y-10000000D01*
X14700000Y-12925000D02*
X14700000Y-13075000D01*
X14625000Y-13000000D02*
X14775000Y-13000000D01*
X14700000Y-15925000D02*
X14700000Y-16075000D01*
X14625000Y-16000000D02*
X14775000Y-16000000D01*
X14700000Y-18925000D02*
X14700000Y-19075000D01*
X14625000Y-19000000D02*
X14775000Y-19000000D01*
X14700000Y-20125000D02*
X14700000Y-20275000D01*
X14625000Y-20200000D02*
X14775000Y-20200000D01*
X14700000Y-23125000D02*
X14700000Y-23275000D01*
X14625000Y-23200000D02*
X14775000Y-23200000D01*
X14700000Y-26125000D02*
X14700000Y-26275000D01*
X14625000Y-26200000D02*
X14775000Y-26200000D01*
X14700000Y-29125000D02*
X14700000Y-29275000D01*
X14625000Y-29200000D02*
X14775000Y-29200000D01*
X15200000Y-9925000D02*
X15200000Y-10075000D01*
X15125000Y-10000000D02*
X15275000Y-10000000D01*
X15200000Y-12925000D02*
X15200000Y-13075000D01*
X15125000Y-13000000D02*
X15275000Y-13000000D01*
X15200000Y-15925000D02*
X15200000Y-16075000D01*
X15125000Y-16000000D02*
X15275000Y-16000000D01*
X15200000Y-18925000D02*
X15200000Y-19075000D01*
X15125000Y-19000000D02*
X15275000Y-19000000D01*
X15200000Y-20125000D02*
X15200000Y-20275000D01*
X15125000Y-20200000D02*
X15275000Y-20200000D01*
X15200000Y-23125000D02*
X15200000Y-23275000D01*
X15125000Y-23200000D02*
X15275000Y-23200000D01*
X15200000Y-26125000D02*
X15200000Y-26275000D01*
X15125000Y-26200000D02*
X15275000Y-26200000D01*
X15200000Y-29125000D02*
X15200000Y-29275000D01*
X15125000Y-29200000D02*
X15275000Y-29200000D01*
X15700000Y-9925000D02*
X15700000Y-10075000D01*
X15625000Y-10000000D02*
X15775000Y-10000000D01*
X15700000Y-12925000D02*
X15700000Y-13075000D01*
X15625000Y-13000000D02*
X15775000Y-13000000D01*
X15700000Y-15925000D02*
X15700000Y-16075000D01*
X15625000Y-16000000D02*
X15775000Y-16000000D01*
X15700000Y-18925000D02*
X15700000Y-19075000D01*
X15625000Y-19000000D02*
X15775000Y-19000000D01*
X15700000Y-20125000D02*
X15700000Y-20275000D01*
X15625000Y-20200000D02*
X15775000Y-20200000D01*
X15700000Y-23125000D02*
X15700000Y-23275000D01*
X15625000Y-23200000D02*
X15775000Y-23200000D01*
X15700000Y-26125000D02*
X15700000Y-26275000D01*
X15625000Y-26200000D02*
X15775000Y-26200000D01*
X15700000Y-29125000D02*
X15700000Y-29275000D01*
X15625000Y-29200000D02*
X15775000Y-29200000D01*
X17700000Y-9925000D02*
X17700000Y-10075000D01*
X17625000Y-10000000D02*
X17775000Y-10000000D01*
X17700000Y-12925000D02*
X17700000Y-13075000D01*
X17625000Y-13000000D02*
X17775000Y-13000000D01*
X17700000Y-15925000D02*
X17700000Y-16075000D01*
X17625000Y-16000000D02*
X17775000Y-16000000D01*
X17700000Y-18925000D02*
X17700000Y-19075000D01*
X17625000Y-19000000D02*
X17775000Y-19000000D01*
X17700000Y-20125000D02*
X17700000Y-20275000D01*
X17625000Y-20200000D02*
X17775000Y-20200000D01*
X17700000Y-23125000D02*
X17700000Y-23275000D01*
X17625000Y-23200000D02*
X17775000Y-23200000D01*
X17700000Y-26125000D02*
X17700000Y-26275000D01*
X17625000Y-26200000D02*
X17775000Y-26200000D01*
X17700000Y-29125000D02*
X17700000Y-29275000D01*
X17625000Y-29200000D02*
X17775000Y-29200000D01*
X18200000Y-9925000D02*
X18200000Y-10075000D01*
X18125000Y-10000000D02*
X18275000Y-10000000D01*
X18200000Y-12925000D02*
X18200000Y-13075000D01*
X18125000Y-13000000D02*
X18275000Y-13000000D01*
X18200000Y-15925000D02*
X18200000Y-16075000D01*
X18125000Y-16000000D02*
X18275000Y-16000000D01*
X18200000Y-18925000D02*
X18200000Y-19075000D01*
X18125000Y-19000000D02*
X18275000Y-19000000D01*
X18200000Y-20125000D02*
X18200000Y-20275000D01*
X18125000Y-20200000D02*
X18275000Y-20200000D01*
X18200000Y-23125000D02*
X18200000Y-23275000D01*
X18125000Y-23200000D02*
X18275000Y-23200000D01*
X18200000Y-26125000D02*
X18200000Y-26275000D01*
X18125000Y-26200000D02*
X18275000Y-26200000D01*
X18200000Y-29125000D02*
X18200000Y-29275000D01*
X18125000Y-29200000D02*
X18275000Y-29200000D01*
X18700000Y-9925000D02*
X18700000Y-10075000D01*
X18625000Y-10000000D02*
X18775000Y-10000000D01*
X18700000Y-12925000D02*
X18700000Y-13075000D01*
X18625000Y-13000000D02*
X18775000Y-13000000D01*
X18700000Y-15925000D02*
X18700000Y-16075000D01*
X18625000Y-16000000D02*
X18775000Y-16000000D01*
X18700000Y-18925000D02*
X18700000Y-19075000D01*
X18625000Y-19000000D02*
X18775000Y-19000000D01*
X18700000Y-20125000D02*
X18700000Y-20275000D01*
X18625000Y-20200000D02*
X18775000Y-20200000D01*
X18700000Y-23125000D02*
X18700000Y-23275000D01*
X18625000Y-23200000D02*
X18775000Y-23200000D01*
X18700000Y-26125000D02*
X18700000Y-26275000D01*
X18625000Y-26200000D02*
X18775000Y-26200000D01*
X18700000Y-29125000D02*
X18700000Y-29275000D01*
X18625000Y-29200000D02*
X18775000Y-29200000D01*
X20700000Y-9925000D02*
X20700000Y-10075000D01*
X20625000Y-10000000D02*
X20775000Y-10000000D01*
X20700000Y-12925000D02*
X20700000Y-13075000D01*
X20625000Y-13000000D02*
X20775000Y-13000000D01*
X20700000Y-15925000D02*
X20700000Y-16075000D01*
X20625000Y-16000000D02*
X20775000Y-16000000D01*
X20700000Y-18925000D02*
X20700000Y-19075000D01*
X20625000Y-19000000D02*
X20775000Y-19000000D01*
X20700000Y-20125000D02*
X20700000Y-20275000D01*
X20625000Y-20200000D02*
X20775000Y-20200000D01*
X20700000Y-23125000D02*
X20700000Y-23275000D01*
X20625000Y-23200000D02*
X20775000Y-23200000D01*
X20700000Y-26125000D02*
X20700000Y-26275000D01*
X20625000Y-26200000D02*
X20775000Y-26200000D01*
X20700000Y-29125000D02*
X20700000Y-29275000D01*
X20625000Y-29200000D02*
X20775000Y-29200000D01*
X21200000Y-9925000D02*
X21200000Y-10075000D01*
X21125000Y-10000000D02*
X21275000Y-10000000D01*
X21200000Y-12925000D02*
X21200000Y-13075000D01*
X21125000Y-13000000D02*
X21275000Y-13000000D01*
X21200000Y-15925000D02*
X21200000Y-16075000D01*
X21125000Y-16000000D02*
X21275000Y-16000000D01*
X21200000Y-18925000D02*
X21200000Y-19075000D01*
X21125000Y-19000000D02*
X21275000Y-19000000D01*
X21200000Y-20125000D02*
X21200000Y-20275000D01*
X21125000Y-20200000D02*
X21275000Y-20200000D01*
X21200000Y-23125000D02*
X21200000Y-23275000D01*
X21125000Y-23200000D02*
X21275000Y-23200000D01*
X21200000Y-26125000D02*
X21200000Y-26275000D01*
X21125000Y-26200000D02*
X21275000Y-26200000D01*
X21200000Y-29125000D02*
X21200000Y-29275000D01*
X21125000Y-29200000D02*
X21275000Y-29200000D01*
X21700000Y-9925000D02*
X21700000Y-10075000D01*
X21625000Y-10000000D02*
X21775000Y-10000000D01*
X21700000Y-12925000D02*
X21700000Y-13075000D01*
X21625000Y-13000000D02*
X21775000Y-13000000D01*
X21700000Y-15925000D02*
X21700000Y-16075000D01*
X21625000Y-16000000D02*
X21775000Y-16000000D01*
X21700000Y-18925000D02*
X21700000Y-19075000D01*
X21625000Y-19000000D02*
X21775000Y-19000000D01*
X21700000Y-20125000D02*
X21700000Y-20275000D01*
X21625000Y-20200000D02*
X21775000Y-20200000D01*
X21700000Y-23125000D02*
X21700000Y-23275000D01*
X21625000Y-23200000D02*
X21775000Y-23200000D01*
X21700000Y-26125000D02*
X21700000Y-26275000D01*
X21625000Y-26200000D02*
X21775000Y-26200000D01*
X21700000Y-29125000D02*
X21700000Y-29275000D01*
X21625000Y-29200000D02*
X21775000Y-29200000D01*
X23700000Y-9925000D02*
X23700000Y-10075000D01*
X23625000Y-10000000D02*
X23775000Y-10000000D01*
X23700000Y-12925000D02*
X23700000Y-13075000D01*
X23625000Y-13000000D02*
X23775000Y-13000000D01*
X23700000Y-15925000D02*
X23700000Y-16075000D01*
X23625000Y-16000000D02*
X23775000Y-16000000D01*
X23700000Y-18925000D02*
X23700000Y-19075000D01*
X23625000Y-19000000D02*
X23775000Y-19000000D01*
X23700000Y-20125000D02*
X23700000Y-20275000D01*
X23625000Y-20200000D02*
X23775000Y-20200000D01*
X23700000Y-23125000D02*
X23700000Y-23275000D01*
X23625000Y-23200000D02*
X23775000Y-23200000D01*
X23700000Y-26125000D02*
X23700000Y-26275000D01*
X23625000Y-26200000D02*
X23775000Y-26200000D01*
X23700000Y-29125000D02*
X23700000Y-29275000D01*
X23625000Y-29200000D02*
X23775000Y-29200000D01*
X24200000Y-9925000D02*
X24200000Y-10075000D01*
X24125000Y-10000000D02*
X24275000Y-10000000D01*
X24200000Y-12925000D02*
X24200000Y-13075000D01*
X24125000Y-13000000D02*
X24275000Y-13000000D01*
X24200000Y-15925000D02*
X24200000Y-16075000D01*
X24125000Y-16000000D02*
X24275000Y-16000000D01*
X24200000Y-18925000D02*
X24200000Y-19075000D01*
X24125000Y-19000000D02*
X24275000Y-19000000D01*
X24200000Y-20125000D02*
X24200000Y-20275000D01*
X24125000Y-20200000D02*
X24275000Y-20200000D01*
X24200000Y-23125000D02*
X24200000Y-23275000D01*
X24125000Y-23200000D02*
X24275000Y-23200000D01*
X24200000Y-26125000D02*
X24200000Y-26275000D01*
X24125000Y-26200000D02*
X24275000Y-26200000D01*
X24200000Y-29125000D02*
X24200000Y-29275000D01*
X24125000Y-29200000D02*
X24275000Y-29200000D01*
X24700000Y-9925000D02*
X24700000Y-10075000D01*
X24625000Y-10000000D02*
X24775000Y-10000000D01*
X24700000Y-12925000D02*
X24700000Y-13075000D01*
X24625000Y-13000000D02*
X24775000Y-13000000D01*
X24700000Y-15925000D02*
X24700000Y-16075000D01*
X24625000Y-16000000D02*
X24775000Y-16000000D01*
X24700000Y-18925000D02*
X24700000Y-19075000D01*
X24625000Y-19000000D02*
X24775000Y-19000000D01*
X24700000Y-20125000D02*
X24700000Y-20275000D01*
X24625000Y-20200000D02*
X24775000Y-20200000D01*
X24700000Y-23125000D02*
X24700000Y-23275000D01*
X24625000Y-23200000D02*
X24775000Y-23200000D01*
X24700000Y-26125000D02*
X24700000Y-26275000D01*
X24625000Y-26200000D02*
X24775000Y-26200000D01*
X24700000Y-29125000D02*
X24700000Y-29275000D01*
X24625000Y-29200000D02*
X24775000Y-29200000D01*
X26047500Y-7893420D02*
X26047500Y-8043420D01*
X25972500Y-7968420D02*
X26122500Y-7968420D01*
X26397500Y-7543420D02*
X26397500Y-7693420D01*
X26322500Y-7618420D02*
X26472500Y-7618420D01*
X26397500Y-7893420D02*
X26397500Y-8043420D01*
X26322500Y-7968420D02*
X26472500Y-7968420D01*
X26700000Y-9925000D02*
X26700000Y-10075000D01*
X26625000Y-10000000D02*
X26775000Y-10000000D01*
X26700000Y-12925000D02*
X26700000Y-13075000D01*
X26625000Y-13000000D02*
X26775000Y-13000000D01*
X26700000Y-15925000D02*
X26700000Y-16075000D01*
X26625000Y-16000000D02*
X26775000Y-16000000D01*
X26700000Y-18925000D02*
X26700000Y-19075000D01*
X26625000Y-19000000D02*
X26775000Y-19000000D01*
X26700000Y-20125000D02*
X26700000Y-20275000D01*
X26625000Y-20200000D02*
X26775000Y-20200000D01*
X26700000Y-23125000D02*
X26700000Y-23275000D01*
X26625000Y-23200000D02*
X26775000Y-23200000D01*
X26700000Y-26125000D02*
X26700000Y-26275000D01*
X26625000Y-26200000D02*
X26775000Y-26200000D01*
X26700000Y-29125000D02*
X26700000Y-29275000D01*
X26625000Y-29200000D02*
X26775000Y-29200000D01*
X26747500Y-7193420D02*
X26747500Y-7343420D01*
X26672500Y-7268420D02*
X26822500Y-7268420D01*
X27097500Y-6843420D02*
X27097500Y-6993420D01*
X27022500Y-6918420D02*
X27172500Y-6918420D01*
X27200000Y-9925000D02*
X27200000Y-10075000D01*
X27125000Y-10000000D02*
X27275000Y-10000000D01*
X27200000Y-12925000D02*
X27200000Y-13075000D01*
X27125000Y-13000000D02*
X27275000Y-13000000D01*
X27200000Y-15925000D02*
X27200000Y-16075000D01*
X27125000Y-16000000D02*
X27275000Y-16000000D01*
X27200000Y-18925000D02*
X27200000Y-19075000D01*
X27125000Y-19000000D02*
X27275000Y-19000000D01*
X27200000Y-20125000D02*
X27200000Y-20275000D01*
X27125000Y-20200000D02*
X27275000Y-20200000D01*
X27200000Y-23125000D02*
X27200000Y-23275000D01*
X27125000Y-23200000D02*
X27275000Y-23200000D01*
X27200000Y-26125000D02*
X27200000Y-26275000D01*
X27125000Y-26200000D02*
X27275000Y-26200000D01*
X27200000Y-29125000D02*
X27200000Y-29275000D01*
X27125000Y-29200000D02*
X27275000Y-29200000D01*
X27447500Y-6493420D02*
X27447500Y-6643420D01*
X27372500Y-6568420D02*
X27522500Y-6568420D01*
X27700000Y-9925000D02*
X27700000Y-10075000D01*
X27625000Y-10000000D02*
X27775000Y-10000000D01*
X27700000Y-12925000D02*
X27700000Y-13075000D01*
X27625000Y-13000000D02*
X27775000Y-13000000D01*
X27700000Y-15925000D02*
X27700000Y-16075000D01*
X27625000Y-16000000D02*
X27775000Y-16000000D01*
X27700000Y-18925000D02*
X27700000Y-19075000D01*
X27625000Y-19000000D02*
X27775000Y-19000000D01*
X27700000Y-20125000D02*
X27700000Y-20275000D01*
X27625000Y-20200000D02*
X27775000Y-20200000D01*
X27700000Y-23125000D02*
X27700000Y-23275000D01*
X27625000Y-23200000D02*
X27775000Y-23200000D01*
X27700000Y-26125000D02*
X27700000Y-26275000D01*
X27625000Y-26200000D02*
X27775000Y-26200000D01*
X27700000Y-29125000D02*
X27700000Y-29275000D01*
X27625000Y-29200000D02*
X27775000Y-29200000D01*
X27797500Y-6143420D02*
X27797500Y-6293420D01*
X27722500Y-6218420D02*
X27872500Y-6218420D01*
X28147500Y-5793420D02*
X28147500Y-5943420D01*
X28072500Y-5868420D02*
X28222500Y-5868420D01*
X29700000Y-9925000D02*
X29700000Y-10075000D01*
X29625000Y-10000000D02*
X29775000Y-10000000D01*
X29700000Y-12925000D02*
X29700000Y-13075000D01*
X29625000Y-13000000D02*
X29775000Y-13000000D01*
X29700000Y-15925000D02*
X29700000Y-16075000D01*
X29625000Y-16000000D02*
X29775000Y-16000000D01*
X29700000Y-18925000D02*
X29700000Y-19075000D01*
X29625000Y-19000000D02*
X29775000Y-19000000D01*
X29700000Y-20125000D02*
X29700000Y-20275000D01*
X29625000Y-20200000D02*
X29775000Y-20200000D01*
X29700000Y-23125000D02*
X29700000Y-23275000D01*
X29625000Y-23200000D02*
X29775000Y-23200000D01*
X29700000Y-26125000D02*
X29700000Y-26275000D01*
X29625000Y-26200000D02*
X29775000Y-26200000D01*
X29700000Y-29125000D02*
X29700000Y-29275000D01*
X29625000Y-29200000D02*
X29775000Y-29200000D01*
X30200000Y-9925000D02*
X30200000Y-10075000D01*
X30125000Y-10000000D02*
X30275000Y-10000000D01*
X30200000Y-12925000D02*
X30200000Y-13075000D01*
X30125000Y-13000000D02*
X30275000Y-13000000D01*
X30200000Y-15925000D02*
X30200000Y-16075000D01*
X30125000Y-16000000D02*
X30275000Y-16000000D01*
X30200000Y-18925000D02*
X30200000Y-19075000D01*
X30125000Y-19000000D02*
X30275000Y-19000000D01*
X30200000Y-20125000D02*
X30200000Y-20275000D01*
X30125000Y-20200000D02*
X30275000Y-20200000D01*
X30200000Y-23125000D02*
X30200000Y-23275000D01*
X30125000Y-23200000D02*
X30275000Y-23200000D01*
X30200000Y-26125000D02*
X30200000Y-26275000D01*
X30125000Y-26200000D02*
X30275000Y-26200000D01*
X30200000Y-29125000D02*
X30200000Y-29275000D01*
X30125000Y-29200000D02*
X30275000Y-29200000D01*
X30700000Y-9925000D02*
X30700000Y-10075000D01*
X30625000Y-10000000D02*
X30775000Y-10000000D01*
X30700000Y-12925000D02*
X30700000Y-13075000D01*
X30625000Y-13000000D02*
X30775000Y-13000000D01*
X30700000Y-15925000D02*
X30700000Y-16075000D01*
X30625000Y-16000000D02*
X30775000Y-16000000D01*
X30700000Y-18925000D02*
X30700000Y-19075000D01*
X30625000Y-19000000D02*
X30775000Y-19000000D01*
X30700000Y-20125000D02*
X30700000Y-20275000D01*
X30625000Y-20200000D02*
X30775000Y-20200000D01*
X30700000Y-23125000D02*
X30700000Y-23275000D01*
X30625000Y-23200000D02*
X30775000Y-23200000D01*
X30700000Y-26125000D02*
X30700000Y-26275000D01*
X30625000Y-26200000D02*
X30775000Y-26200000D01*
X30700000Y-29125000D02*
X30700000Y-29275000D01*
X30625000Y-29200000D02*
X30775000Y-29200000D01*
D12*
X5483928Y-34568214D02*
X5483928Y-34268214D01*
X5555357Y-34268214D01*
X5598214Y-34282500D01*
X5626786Y-34311072D01*
X5641071Y-34339643D01*
X5655357Y-34396786D01*
X5655357Y-34439643D01*
X5641071Y-34496786D01*
X5626786Y-34525357D01*
X5598214Y-34553929D01*
X5555357Y-34568214D01*
X5483928Y-34568214D01*
X5783928Y-34568214D02*
X5783928Y-34368214D01*
X5783928Y-34425357D02*
X5798214Y-34396786D01*
X5812500Y-34382500D01*
X5841071Y-34368214D01*
X5869643Y-34368214D01*
X5969643Y-34568214D02*
X5969643Y-34368214D01*
X5969643Y-34268214D02*
X5955357Y-34282500D01*
X5969643Y-34296786D01*
X5983928Y-34282500D01*
X5969643Y-34268214D01*
X5969643Y-34296786D01*
X6155357Y-34568214D02*
X6126786Y-34553929D01*
X6112500Y-34525357D01*
X6112500Y-34268214D01*
X6312500Y-34568214D02*
X6283928Y-34553929D01*
X6269643Y-34525357D01*
X6269643Y-34268214D01*
X6655357Y-34568214D02*
X6655357Y-34268214D01*
X6755357Y-34482500D01*
X6855357Y-34268214D01*
X6855357Y-34568214D01*
X7126786Y-34568214D02*
X7126786Y-34411072D01*
X7112500Y-34382500D01*
X7083928Y-34368214D01*
X7026786Y-34368214D01*
X6998214Y-34382500D01*
X7126786Y-34553929D02*
X7098214Y-34568214D01*
X7026786Y-34568214D01*
X6998214Y-34553929D01*
X6983928Y-34525357D01*
X6983928Y-34496786D01*
X6998214Y-34468214D01*
X7026786Y-34453929D01*
X7098214Y-34453929D01*
X7126786Y-34439643D01*
X7269643Y-34368214D02*
X7269643Y-34668214D01*
X7269643Y-34382500D02*
X7298214Y-34368214D01*
X7355357Y-34368214D01*
X7383928Y-34382500D01*
X7398214Y-34396786D01*
X7412500Y-34425357D01*
X7412500Y-34511072D01*
X7398214Y-34539643D01*
X7383928Y-34553929D01*
X7355357Y-34568214D01*
X7298214Y-34568214D01*
X7269643Y-34553929D01*
X7541071Y-34539643D02*
X7555357Y-34553929D01*
X7541071Y-34568214D01*
X7526786Y-34553929D01*
X7541071Y-34539643D01*
X7541071Y-34568214D01*
X7541071Y-34382500D02*
X7555357Y-34396786D01*
X7541071Y-34411072D01*
X7526786Y-34396786D01*
X7541071Y-34382500D01*
X7541071Y-34411072D01*
X5097500Y-35012500D02*
X5197500Y-35112500D01*
X5197500Y-35012500D02*
X5097500Y-35112500D01*
X5641071Y-35198214D02*
X5469643Y-35198214D01*
X5555357Y-35198214D02*
X5555357Y-34898214D01*
X5526786Y-34941072D01*
X5498214Y-34969643D01*
X5469643Y-34983929D01*
X5769643Y-35169643D02*
X5783928Y-35183929D01*
X5769643Y-35198214D01*
X5755357Y-35183929D01*
X5769643Y-35169643D01*
X5769643Y-35198214D01*
X5969643Y-34898214D02*
X5998214Y-34898214D01*
X6026786Y-34912500D01*
X6041071Y-34926786D01*
X6055357Y-34955357D01*
X6069643Y-35012500D01*
X6069643Y-35083929D01*
X6055357Y-35141072D01*
X6041071Y-35169643D01*
X6026786Y-35183929D01*
X5998214Y-35198214D01*
X5969643Y-35198214D01*
X5941071Y-35183929D01*
X5926786Y-35169643D01*
X5912500Y-35141072D01*
X5898214Y-35083929D01*
X5898214Y-35012500D01*
X5912500Y-34955357D01*
X5926786Y-34926786D01*
X5941071Y-34912500D01*
X5969643Y-34898214D01*
X6255357Y-34898214D02*
X6283928Y-34898214D01*
X6312500Y-34912500D01*
X6326786Y-34926786D01*
X6341071Y-34955357D01*
X6355357Y-35012500D01*
X6355357Y-35083929D01*
X6341071Y-35141072D01*
X6326786Y-35169643D01*
X6312500Y-35183929D01*
X6283928Y-35198214D01*
X6255357Y-35198214D01*
X6226786Y-35183929D01*
X6212500Y-35169643D01*
X6198214Y-35141072D01*
X6183928Y-35083929D01*
X6183928Y-35012500D01*
X6198214Y-34955357D01*
X6212500Y-34926786D01*
X6226786Y-34912500D01*
X6255357Y-34898214D01*
X6541071Y-34898214D02*
X6569643Y-34898214D01*
X6598214Y-34912500D01*
X6612500Y-34926786D01*
X6626786Y-34955357D01*
X6641071Y-35012500D01*
X6641071Y-35083929D01*
X6626786Y-35141072D01*
X6612500Y-35169643D01*
X6598214Y-35183929D01*
X6569643Y-35198214D01*
X6541071Y-35198214D01*
X6512500Y-35183929D01*
X6498214Y-35169643D01*
X6483928Y-35141072D01*
X6469643Y-35083929D01*
X6469643Y-35012500D01*
X6483928Y-34955357D01*
X6498214Y-34926786D01*
X6512500Y-34912500D01*
X6541071Y-34898214D01*
X6769643Y-35198214D02*
X6769643Y-34998214D01*
X6769643Y-35026786D02*
X6783928Y-35012500D01*
X6812500Y-34998214D01*
X6855357Y-34998214D01*
X6883928Y-35012500D01*
X6898214Y-35041072D01*
X6898214Y-35198214D01*
X6898214Y-35041072D02*
X6912500Y-35012500D01*
X6941071Y-34998214D01*
X6983928Y-34998214D01*
X7012500Y-35012500D01*
X7026786Y-35041072D01*
X7026786Y-35198214D01*
X7169643Y-35198214D02*
X7169643Y-34998214D01*
X7169643Y-35026786D02*
X7183928Y-35012500D01*
X7212500Y-34998214D01*
X7255357Y-34998214D01*
X7283928Y-35012500D01*
X7298214Y-35041072D01*
X7298214Y-35198214D01*
X7298214Y-35041072D02*
X7312500Y-35012500D01*
X7341071Y-34998214D01*
X7383928Y-34998214D01*
X7412500Y-35012500D01*
X7426786Y-35041072D01*
X7426786Y-35198214D01*
X8012500Y-34883929D02*
X7755357Y-35269643D01*
X8398214Y-34898214D02*
X8426786Y-34898214D01*
X8455357Y-34912500D01*
X8469643Y-34926786D01*
X8483928Y-34955357D01*
X8498214Y-35012500D01*
X8498214Y-35083929D01*
X8483928Y-35141072D01*
X8469643Y-35169643D01*
X8455357Y-35183929D01*
X8426786Y-35198214D01*
X8398214Y-35198214D01*
X8369643Y-35183929D01*
X8355357Y-35169643D01*
X8341071Y-35141072D01*
X8326786Y-35083929D01*
X8326786Y-35012500D01*
X8341071Y-34955357D01*
X8355357Y-34926786D01*
X8369643Y-34912500D01*
X8398214Y-34898214D01*
X8626786Y-35169643D02*
X8641071Y-35183929D01*
X8626786Y-35198214D01*
X8612500Y-35183929D01*
X8626786Y-35169643D01*
X8626786Y-35198214D01*
X8826786Y-34898214D02*
X8855357Y-34898214D01*
X8883928Y-34912500D01*
X8898214Y-34926786D01*
X8912500Y-34955357D01*
X8926786Y-35012500D01*
X8926786Y-35083929D01*
X8912500Y-35141072D01*
X8898214Y-35169643D01*
X8883928Y-35183929D01*
X8855357Y-35198214D01*
X8826786Y-35198214D01*
X8798214Y-35183929D01*
X8783928Y-35169643D01*
X8769643Y-35141072D01*
X8755357Y-35083929D01*
X8755357Y-35012500D01*
X8769643Y-34955357D01*
X8783928Y-34926786D01*
X8798214Y-34912500D01*
X8826786Y-34898214D01*
X9026786Y-34898214D02*
X9212500Y-34898214D01*
X9112500Y-35012500D01*
X9155357Y-35012500D01*
X9183928Y-35026786D01*
X9198214Y-35041072D01*
X9212500Y-35069643D01*
X9212500Y-35141072D01*
X9198214Y-35169643D01*
X9183928Y-35183929D01*
X9155357Y-35198214D01*
X9069643Y-35198214D01*
X9041071Y-35183929D01*
X9026786Y-35169643D01*
X9355357Y-35198214D02*
X9412500Y-35198214D01*
X9441071Y-35183929D01*
X9455357Y-35169643D01*
X9483928Y-35126786D01*
X9498214Y-35069643D01*
X9498214Y-34955357D01*
X9483928Y-34926786D01*
X9469643Y-34912500D01*
X9441071Y-34898214D01*
X9383928Y-34898214D01*
X9355357Y-34912500D01*
X9341071Y-34926786D01*
X9326786Y-34955357D01*
X9326786Y-35026786D01*
X9341071Y-35055357D01*
X9355357Y-35069643D01*
X9383928Y-35083929D01*
X9441071Y-35083929D01*
X9469643Y-35069643D01*
X9483928Y-35055357D01*
X9498214Y-35026786D01*
X9755357Y-34998214D02*
X9755357Y-35198214D01*
X9683928Y-34883929D02*
X9612500Y-35098214D01*
X9798214Y-35098214D01*
X9898214Y-34898214D02*
X9898214Y-34955357D01*
X10012500Y-34898214D02*
X10012500Y-34955357D01*
X10455357Y-35312500D02*
X10441071Y-35298214D01*
X10412500Y-35255357D01*
X10398214Y-35226786D01*
X10383928Y-35183929D01*
X10369643Y-35112500D01*
X10369643Y-35055357D01*
X10383928Y-34983929D01*
X10398214Y-34941072D01*
X10412500Y-34912500D01*
X10441071Y-34869643D01*
X10455357Y-34855357D01*
X10626786Y-34898214D02*
X10655357Y-34898214D01*
X10683928Y-34912500D01*
X10698214Y-34926786D01*
X10712500Y-34955357D01*
X10726786Y-35012500D01*
X10726786Y-35083929D01*
X10712500Y-35141072D01*
X10698214Y-35169643D01*
X10683928Y-35183929D01*
X10655357Y-35198214D01*
X10626786Y-35198214D01*
X10598214Y-35183929D01*
X10583928Y-35169643D01*
X10569643Y-35141072D01*
X10555357Y-35083929D01*
X10555357Y-35012500D01*
X10569643Y-34955357D01*
X10583928Y-34926786D01*
X10598214Y-34912500D01*
X10626786Y-34898214D01*
X11083928Y-35198214D02*
X11083928Y-34898214D01*
X11212500Y-35198214D02*
X11212500Y-35041072D01*
X11198214Y-35012500D01*
X11169643Y-34998214D01*
X11126786Y-34998214D01*
X11098214Y-35012500D01*
X11083928Y-35026786D01*
X11398214Y-35198214D02*
X11369643Y-35183929D01*
X11355357Y-35169643D01*
X11341071Y-35141072D01*
X11341071Y-35055357D01*
X11355357Y-35026786D01*
X11369643Y-35012500D01*
X11398214Y-34998214D01*
X11441071Y-34998214D01*
X11469643Y-35012500D01*
X11483928Y-35026786D01*
X11498214Y-35055357D01*
X11498214Y-35141072D01*
X11483928Y-35169643D01*
X11469643Y-35183929D01*
X11441071Y-35198214D01*
X11398214Y-35198214D01*
X11669643Y-35198214D02*
X11641071Y-35183929D01*
X11626786Y-35155357D01*
X11626786Y-34898214D01*
X11898214Y-35183929D02*
X11869643Y-35198214D01*
X11812500Y-35198214D01*
X11783928Y-35183929D01*
X11769643Y-35155357D01*
X11769643Y-35041072D01*
X11783928Y-35012500D01*
X11812500Y-34998214D01*
X11869643Y-34998214D01*
X11898214Y-35012500D01*
X11912500Y-35041072D01*
X11912500Y-35069643D01*
X11769643Y-35098214D01*
X12026786Y-35183929D02*
X12055357Y-35198214D01*
X12112500Y-35198214D01*
X12141071Y-35183929D01*
X12155357Y-35155357D01*
X12155357Y-35141072D01*
X12141071Y-35112500D01*
X12112500Y-35098214D01*
X12069643Y-35098214D01*
X12041071Y-35083929D01*
X12026786Y-35055357D01*
X12026786Y-35041072D01*
X12041071Y-35012500D01*
X12069643Y-34998214D01*
X12112500Y-34998214D01*
X12141071Y-35012500D01*
X12512500Y-35083929D02*
X12741071Y-35083929D01*
X12626786Y-35198214D02*
X12626786Y-34969643D01*
X13083928Y-34898214D02*
X13269643Y-34898214D01*
X13169643Y-35012500D01*
X13212500Y-35012500D01*
X13241071Y-35026786D01*
X13255357Y-35041072D01*
X13269643Y-35069643D01*
X13269643Y-35141072D01*
X13255357Y-35169643D01*
X13241071Y-35183929D01*
X13212500Y-35198214D01*
X13126786Y-35198214D01*
X13098214Y-35183929D01*
X13083928Y-35169643D01*
X13612500Y-35183929D02*
X13641071Y-35198214D01*
X13698214Y-35198214D01*
X13726786Y-35183929D01*
X13741071Y-35155357D01*
X13741071Y-35141072D01*
X13726786Y-35112500D01*
X13698214Y-35098214D01*
X13655357Y-35098214D01*
X13626786Y-35083929D01*
X13612500Y-35055357D01*
X13612500Y-35041072D01*
X13626786Y-35012500D01*
X13655357Y-34998214D01*
X13698214Y-34998214D01*
X13726786Y-35012500D01*
X13912500Y-35198214D02*
X13883928Y-35183929D01*
X13869643Y-35155357D01*
X13869643Y-34898214D01*
X14069643Y-35198214D02*
X14041071Y-35183929D01*
X14026786Y-35169643D01*
X14012500Y-35141072D01*
X14012500Y-35055357D01*
X14026786Y-35026786D01*
X14041071Y-35012500D01*
X14069643Y-34998214D01*
X14112500Y-34998214D01*
X14141071Y-35012500D01*
X14155357Y-35026786D01*
X14169643Y-35055357D01*
X14169643Y-35141072D01*
X14155357Y-35169643D01*
X14141071Y-35183929D01*
X14112500Y-35198214D01*
X14069643Y-35198214D01*
X14255357Y-34998214D02*
X14369643Y-34998214D01*
X14298214Y-34898214D02*
X14298214Y-35155357D01*
X14312500Y-35183929D01*
X14341071Y-35198214D01*
X14369643Y-35198214D01*
X14455357Y-35183929D02*
X14483928Y-35198214D01*
X14541071Y-35198214D01*
X14569643Y-35183929D01*
X14583928Y-35155357D01*
X14583928Y-35141072D01*
X14569643Y-35112500D01*
X14541071Y-35098214D01*
X14498214Y-35098214D01*
X14469643Y-35083929D01*
X14455357Y-35055357D01*
X14455357Y-35041072D01*
X14469643Y-35012500D01*
X14498214Y-34998214D01*
X14541071Y-34998214D01*
X14569643Y-35012500D01*
X14683928Y-35312500D02*
X14698214Y-35298214D01*
X14726786Y-35255357D01*
X14741071Y-35226786D01*
X14755357Y-35183929D01*
X14769643Y-35112500D01*
X14769643Y-35055357D01*
X14755357Y-34983929D01*
X14741071Y-34941072D01*
X14726786Y-34912500D01*
X14698214Y-34869643D01*
X14683928Y-34855357D01*
X5197500Y-35458500D02*
G75*
G03*
X5197500Y-35458500I-52000J0D01*
G01*
X5641071Y-35594214D02*
X5469643Y-35594214D01*
X5555357Y-35594214D02*
X5555357Y-35294214D01*
X5526786Y-35337072D01*
X5498214Y-35365643D01*
X5469643Y-35379929D01*
X5769643Y-35565643D02*
X5783928Y-35579929D01*
X5769643Y-35594214D01*
X5755357Y-35579929D01*
X5769643Y-35565643D01*
X5769643Y-35594214D01*
X5969643Y-35294214D02*
X5998214Y-35294214D01*
X6026786Y-35308500D01*
X6041071Y-35322786D01*
X6055357Y-35351357D01*
X6069643Y-35408500D01*
X6069643Y-35479929D01*
X6055357Y-35537072D01*
X6041071Y-35565643D01*
X6026786Y-35579929D01*
X5998214Y-35594214D01*
X5969643Y-35594214D01*
X5941071Y-35579929D01*
X5926786Y-35565643D01*
X5912500Y-35537072D01*
X5898214Y-35479929D01*
X5898214Y-35408500D01*
X5912500Y-35351357D01*
X5926786Y-35322786D01*
X5941071Y-35308500D01*
X5969643Y-35294214D01*
X6326786Y-35394214D02*
X6326786Y-35594214D01*
X6255357Y-35279929D02*
X6183928Y-35494214D01*
X6369643Y-35494214D01*
X6541071Y-35294214D02*
X6569643Y-35294214D01*
X6598214Y-35308500D01*
X6612500Y-35322786D01*
X6626786Y-35351357D01*
X6641071Y-35408500D01*
X6641071Y-35479929D01*
X6626786Y-35537072D01*
X6612500Y-35565643D01*
X6598214Y-35579929D01*
X6569643Y-35594214D01*
X6541071Y-35594214D01*
X6512500Y-35579929D01*
X6498214Y-35565643D01*
X6483928Y-35537072D01*
X6469643Y-35479929D01*
X6469643Y-35408500D01*
X6483928Y-35351357D01*
X6498214Y-35322786D01*
X6512500Y-35308500D01*
X6541071Y-35294214D01*
X6769643Y-35594214D02*
X6769643Y-35394214D01*
X6769643Y-35422786D02*
X6783928Y-35408500D01*
X6812500Y-35394214D01*
X6855357Y-35394214D01*
X6883928Y-35408500D01*
X6898214Y-35437072D01*
X6898214Y-35594214D01*
X6898214Y-35437072D02*
X6912500Y-35408500D01*
X6941071Y-35394214D01*
X6983928Y-35394214D01*
X7012500Y-35408500D01*
X7026786Y-35437072D01*
X7026786Y-35594214D01*
X7169643Y-35594214D02*
X7169643Y-35394214D01*
X7169643Y-35422786D02*
X7183928Y-35408500D01*
X7212500Y-35394214D01*
X7255357Y-35394214D01*
X7283928Y-35408500D01*
X7298214Y-35437072D01*
X7298214Y-35594214D01*
X7298214Y-35437072D02*
X7312500Y-35408500D01*
X7341071Y-35394214D01*
X7383928Y-35394214D01*
X7412500Y-35408500D01*
X7426786Y-35437072D01*
X7426786Y-35594214D01*
X8012500Y-35279929D02*
X7755357Y-35665643D01*
X8398214Y-35294214D02*
X8426786Y-35294214D01*
X8455357Y-35308500D01*
X8469643Y-35322786D01*
X8483928Y-35351357D01*
X8498214Y-35408500D01*
X8498214Y-35479929D01*
X8483928Y-35537072D01*
X8469643Y-35565643D01*
X8455357Y-35579929D01*
X8426786Y-35594214D01*
X8398214Y-35594214D01*
X8369643Y-35579929D01*
X8355357Y-35565643D01*
X8341071Y-35537072D01*
X8326786Y-35479929D01*
X8326786Y-35408500D01*
X8341071Y-35351357D01*
X8355357Y-35322786D01*
X8369643Y-35308500D01*
X8398214Y-35294214D01*
X8626786Y-35565643D02*
X8641071Y-35579929D01*
X8626786Y-35594214D01*
X8612500Y-35579929D01*
X8626786Y-35565643D01*
X8626786Y-35594214D01*
X8826786Y-35294214D02*
X8855357Y-35294214D01*
X8883928Y-35308500D01*
X8898214Y-35322786D01*
X8912500Y-35351357D01*
X8926786Y-35408500D01*
X8926786Y-35479929D01*
X8912500Y-35537072D01*
X8898214Y-35565643D01*
X8883928Y-35579929D01*
X8855357Y-35594214D01*
X8826786Y-35594214D01*
X8798214Y-35579929D01*
X8783928Y-35565643D01*
X8769643Y-35537072D01*
X8755357Y-35479929D01*
X8755357Y-35408500D01*
X8769643Y-35351357D01*
X8783928Y-35322786D01*
X8798214Y-35308500D01*
X8826786Y-35294214D01*
X9183928Y-35394214D02*
X9183928Y-35594214D01*
X9112500Y-35279929D02*
X9041071Y-35494214D01*
X9226786Y-35494214D01*
X9398214Y-35294214D02*
X9426786Y-35294214D01*
X9455357Y-35308500D01*
X9469643Y-35322786D01*
X9483928Y-35351357D01*
X9498214Y-35408500D01*
X9498214Y-35479929D01*
X9483928Y-35537072D01*
X9469643Y-35565643D01*
X9455357Y-35579929D01*
X9426786Y-35594214D01*
X9398214Y-35594214D01*
X9369643Y-35579929D01*
X9355357Y-35565643D01*
X9341071Y-35537072D01*
X9326786Y-35479929D01*
X9326786Y-35408500D01*
X9341071Y-35351357D01*
X9355357Y-35322786D01*
X9369643Y-35308500D01*
X9398214Y-35294214D01*
X9641071Y-35594214D02*
X9698214Y-35594214D01*
X9726786Y-35579929D01*
X9741071Y-35565643D01*
X9769643Y-35522786D01*
X9783928Y-35465643D01*
X9783928Y-35351357D01*
X9769643Y-35322786D01*
X9755357Y-35308500D01*
X9726786Y-35294214D01*
X9669643Y-35294214D01*
X9641071Y-35308500D01*
X9626786Y-35322786D01*
X9612500Y-35351357D01*
X9612500Y-35422786D01*
X9626786Y-35451357D01*
X9641071Y-35465643D01*
X9669643Y-35479929D01*
X9726786Y-35479929D01*
X9755357Y-35465643D01*
X9769643Y-35451357D01*
X9783928Y-35422786D01*
X9898214Y-35294214D02*
X9898214Y-35351357D01*
X10012500Y-35294214D02*
X10012500Y-35351357D01*
X10455357Y-35708500D02*
X10441071Y-35694214D01*
X10412500Y-35651357D01*
X10398214Y-35622786D01*
X10383928Y-35579929D01*
X10369643Y-35508500D01*
X10369643Y-35451357D01*
X10383928Y-35379929D01*
X10398214Y-35337072D01*
X10412500Y-35308500D01*
X10441071Y-35265643D01*
X10455357Y-35251357D01*
X10541071Y-35294214D02*
X10726786Y-35294214D01*
X10626786Y-35408500D01*
X10669643Y-35408500D01*
X10698214Y-35422786D01*
X10712500Y-35437072D01*
X10726786Y-35465643D01*
X10726786Y-35537072D01*
X10712500Y-35565643D01*
X10698214Y-35579929D01*
X10669643Y-35594214D01*
X10583928Y-35594214D01*
X10555357Y-35579929D01*
X10541071Y-35565643D01*
X10898214Y-35422786D02*
X10869643Y-35408500D01*
X10855357Y-35394214D01*
X10841071Y-35365643D01*
X10841071Y-35351357D01*
X10855357Y-35322786D01*
X10869643Y-35308500D01*
X10898214Y-35294214D01*
X10955357Y-35294214D01*
X10983928Y-35308500D01*
X10998214Y-35322786D01*
X11012500Y-35351357D01*
X11012500Y-35365643D01*
X10998214Y-35394214D01*
X10983928Y-35408500D01*
X10955357Y-35422786D01*
X10898214Y-35422786D01*
X10869643Y-35437072D01*
X10855357Y-35451357D01*
X10841071Y-35479929D01*
X10841071Y-35537072D01*
X10855357Y-35565643D01*
X10869643Y-35579929D01*
X10898214Y-35594214D01*
X10955357Y-35594214D01*
X10983928Y-35579929D01*
X10998214Y-35565643D01*
X11012500Y-35537072D01*
X11012500Y-35479929D01*
X10998214Y-35451357D01*
X10983928Y-35437072D01*
X10955357Y-35422786D01*
X11369643Y-35594214D02*
X11369643Y-35294214D01*
X11498214Y-35594214D02*
X11498214Y-35437072D01*
X11483928Y-35408500D01*
X11455357Y-35394214D01*
X11412500Y-35394214D01*
X11383928Y-35408500D01*
X11369643Y-35422786D01*
X11683928Y-35594214D02*
X11655357Y-35579929D01*
X11641071Y-35565643D01*
X11626786Y-35537072D01*
X11626786Y-35451357D01*
X11641071Y-35422786D01*
X11655357Y-35408500D01*
X11683928Y-35394214D01*
X11726786Y-35394214D01*
X11755357Y-35408500D01*
X11769643Y-35422786D01*
X11783928Y-35451357D01*
X11783928Y-35537072D01*
X11769643Y-35565643D01*
X11755357Y-35579929D01*
X11726786Y-35594214D01*
X11683928Y-35594214D01*
X11955357Y-35594214D02*
X11926786Y-35579929D01*
X11912500Y-35551357D01*
X11912500Y-35294214D01*
X12183928Y-35579929D02*
X12155357Y-35594214D01*
X12098214Y-35594214D01*
X12069643Y-35579929D01*
X12055357Y-35551357D01*
X12055357Y-35437072D01*
X12069643Y-35408500D01*
X12098214Y-35394214D01*
X12155357Y-35394214D01*
X12183928Y-35408500D01*
X12198214Y-35437072D01*
X12198214Y-35465643D01*
X12055357Y-35494214D01*
X12312500Y-35579929D02*
X12341071Y-35594214D01*
X12398214Y-35594214D01*
X12426786Y-35579929D01*
X12441071Y-35551357D01*
X12441071Y-35537072D01*
X12426786Y-35508500D01*
X12398214Y-35494214D01*
X12355357Y-35494214D01*
X12326786Y-35479929D01*
X12312500Y-35451357D01*
X12312500Y-35437072D01*
X12326786Y-35408500D01*
X12355357Y-35394214D01*
X12398214Y-35394214D01*
X12426786Y-35408500D01*
X12541071Y-35708500D02*
X12555357Y-35694214D01*
X12583928Y-35651357D01*
X12598214Y-35622786D01*
X12612500Y-35579929D01*
X12626786Y-35508500D01*
X12626786Y-35451357D01*
X12612500Y-35379929D01*
X12598214Y-35337072D01*
X12583928Y-35308500D01*
X12555357Y-35265643D01*
X12541071Y-35251357D01*
X5122500Y-35779500D02*
X5122500Y-35929500D01*
X5047500Y-35854500D02*
X5197500Y-35854500D01*
X5641071Y-35990214D02*
X5469643Y-35990214D01*
X5555357Y-35990214D02*
X5555357Y-35690214D01*
X5526786Y-35733072D01*
X5498214Y-35761643D01*
X5469643Y-35775929D01*
X5769643Y-35961643D02*
X5783928Y-35975929D01*
X5769643Y-35990214D01*
X5755357Y-35975929D01*
X5769643Y-35961643D01*
X5769643Y-35990214D01*
X6055357Y-35690214D02*
X5912500Y-35690214D01*
X5898214Y-35833072D01*
X5912500Y-35818786D01*
X5941071Y-35804500D01*
X6012500Y-35804500D01*
X6041071Y-35818786D01*
X6055357Y-35833072D01*
X6069643Y-35861643D01*
X6069643Y-35933072D01*
X6055357Y-35961643D01*
X6041071Y-35975929D01*
X6012500Y-35990214D01*
X5941071Y-35990214D01*
X5912500Y-35975929D01*
X5898214Y-35961643D01*
X6255357Y-35690214D02*
X6283928Y-35690214D01*
X6312500Y-35704500D01*
X6326786Y-35718786D01*
X6341071Y-35747357D01*
X6355357Y-35804500D01*
X6355357Y-35875929D01*
X6341071Y-35933072D01*
X6326786Y-35961643D01*
X6312500Y-35975929D01*
X6283928Y-35990214D01*
X6255357Y-35990214D01*
X6226786Y-35975929D01*
X6212500Y-35961643D01*
X6198214Y-35933072D01*
X6183928Y-35875929D01*
X6183928Y-35804500D01*
X6198214Y-35747357D01*
X6212500Y-35718786D01*
X6226786Y-35704500D01*
X6255357Y-35690214D01*
X6541071Y-35690214D02*
X6569643Y-35690214D01*
X6598214Y-35704500D01*
X6612500Y-35718786D01*
X6626786Y-35747357D01*
X6641071Y-35804500D01*
X6641071Y-35875929D01*
X6626786Y-35933072D01*
X6612500Y-35961643D01*
X6598214Y-35975929D01*
X6569643Y-35990214D01*
X6541071Y-35990214D01*
X6512500Y-35975929D01*
X6498214Y-35961643D01*
X6483928Y-35933072D01*
X6469643Y-35875929D01*
X6469643Y-35804500D01*
X6483928Y-35747357D01*
X6498214Y-35718786D01*
X6512500Y-35704500D01*
X6541071Y-35690214D01*
X6769643Y-35990214D02*
X6769643Y-35790214D01*
X6769643Y-35818786D02*
X6783928Y-35804500D01*
X6812500Y-35790214D01*
X6855357Y-35790214D01*
X6883928Y-35804500D01*
X6898214Y-35833072D01*
X6898214Y-35990214D01*
X6898214Y-35833072D02*
X6912500Y-35804500D01*
X6941071Y-35790214D01*
X6983928Y-35790214D01*
X7012500Y-35804500D01*
X7026786Y-35833072D01*
X7026786Y-35990214D01*
X7169643Y-35990214D02*
X7169643Y-35790214D01*
X7169643Y-35818786D02*
X7183928Y-35804500D01*
X7212500Y-35790214D01*
X7255357Y-35790214D01*
X7283928Y-35804500D01*
X7298214Y-35833072D01*
X7298214Y-35990214D01*
X7298214Y-35833072D02*
X7312500Y-35804500D01*
X7341071Y-35790214D01*
X7383928Y-35790214D01*
X7412500Y-35804500D01*
X7426786Y-35833072D01*
X7426786Y-35990214D01*
X8012500Y-35675929D02*
X7755357Y-36061643D01*
X8398214Y-35690214D02*
X8426786Y-35690214D01*
X8455357Y-35704500D01*
X8469643Y-35718786D01*
X8483928Y-35747357D01*
X8498214Y-35804500D01*
X8498214Y-35875929D01*
X8483928Y-35933072D01*
X8469643Y-35961643D01*
X8455357Y-35975929D01*
X8426786Y-35990214D01*
X8398214Y-35990214D01*
X8369643Y-35975929D01*
X8355357Y-35961643D01*
X8341071Y-35933072D01*
X8326786Y-35875929D01*
X8326786Y-35804500D01*
X8341071Y-35747357D01*
X8355357Y-35718786D01*
X8369643Y-35704500D01*
X8398214Y-35690214D01*
X8626786Y-35961643D02*
X8641071Y-35975929D01*
X8626786Y-35990214D01*
X8612500Y-35975929D01*
X8626786Y-35961643D01*
X8626786Y-35990214D01*
X8826786Y-35690214D02*
X8855357Y-35690214D01*
X8883928Y-35704500D01*
X8898214Y-35718786D01*
X8912500Y-35747357D01*
X8926786Y-35804500D01*
X8926786Y-35875929D01*
X8912500Y-35933072D01*
X8898214Y-35961643D01*
X8883928Y-35975929D01*
X8855357Y-35990214D01*
X8826786Y-35990214D01*
X8798214Y-35975929D01*
X8783928Y-35961643D01*
X8769643Y-35933072D01*
X8755357Y-35875929D01*
X8755357Y-35804500D01*
X8769643Y-35747357D01*
X8783928Y-35718786D01*
X8798214Y-35704500D01*
X8826786Y-35690214D01*
X9198214Y-35690214D02*
X9055357Y-35690214D01*
X9041071Y-35833072D01*
X9055357Y-35818786D01*
X9083928Y-35804500D01*
X9155357Y-35804500D01*
X9183928Y-35818786D01*
X9198214Y-35833072D01*
X9212500Y-35861643D01*
X9212500Y-35933072D01*
X9198214Y-35961643D01*
X9183928Y-35975929D01*
X9155357Y-35990214D01*
X9083928Y-35990214D01*
X9055357Y-35975929D01*
X9041071Y-35961643D01*
X9355357Y-35990214D02*
X9412500Y-35990214D01*
X9441071Y-35975929D01*
X9455357Y-35961643D01*
X9483928Y-35918786D01*
X9498214Y-35861643D01*
X9498214Y-35747357D01*
X9483928Y-35718786D01*
X9469643Y-35704500D01*
X9441071Y-35690214D01*
X9383928Y-35690214D01*
X9355357Y-35704500D01*
X9341071Y-35718786D01*
X9326786Y-35747357D01*
X9326786Y-35818786D01*
X9341071Y-35847357D01*
X9355357Y-35861643D01*
X9383928Y-35875929D01*
X9441071Y-35875929D01*
X9469643Y-35861643D01*
X9483928Y-35847357D01*
X9498214Y-35818786D01*
X9783928Y-35990214D02*
X9612500Y-35990214D01*
X9698214Y-35990214D02*
X9698214Y-35690214D01*
X9669643Y-35733072D01*
X9641071Y-35761643D01*
X9612500Y-35775929D01*
X9898214Y-35690214D02*
X9898214Y-35747357D01*
X10012500Y-35690214D02*
X10012500Y-35747357D01*
X10455357Y-36104500D02*
X10441071Y-36090214D01*
X10412500Y-36047357D01*
X10398214Y-36018786D01*
X10383928Y-35975929D01*
X10369643Y-35904500D01*
X10369643Y-35847357D01*
X10383928Y-35775929D01*
X10398214Y-35733072D01*
X10412500Y-35704500D01*
X10441071Y-35661643D01*
X10455357Y-35647357D01*
X10555357Y-35718786D02*
X10569643Y-35704500D01*
X10598214Y-35690214D01*
X10669643Y-35690214D01*
X10698214Y-35704500D01*
X10712500Y-35718786D01*
X10726786Y-35747357D01*
X10726786Y-35775929D01*
X10712500Y-35818786D01*
X10541071Y-35990214D01*
X10726786Y-35990214D01*
X10912500Y-35690214D02*
X10941071Y-35690214D01*
X10969643Y-35704500D01*
X10983928Y-35718786D01*
X10998214Y-35747357D01*
X11012500Y-35804500D01*
X11012500Y-35875929D01*
X10998214Y-35933072D01*
X10983928Y-35961643D01*
X10969643Y-35975929D01*
X10941071Y-35990214D01*
X10912500Y-35990214D01*
X10883928Y-35975929D01*
X10869643Y-35961643D01*
X10855357Y-35933072D01*
X10841071Y-35875929D01*
X10841071Y-35804500D01*
X10855357Y-35747357D01*
X10869643Y-35718786D01*
X10883928Y-35704500D01*
X10912500Y-35690214D01*
X11198214Y-35690214D02*
X11226786Y-35690214D01*
X11255357Y-35704500D01*
X11269643Y-35718786D01*
X11283928Y-35747357D01*
X11298214Y-35804500D01*
X11298214Y-35875929D01*
X11283928Y-35933072D01*
X11269643Y-35961643D01*
X11255357Y-35975929D01*
X11226786Y-35990214D01*
X11198214Y-35990214D01*
X11169643Y-35975929D01*
X11155357Y-35961643D01*
X11141071Y-35933072D01*
X11126786Y-35875929D01*
X11126786Y-35804500D01*
X11141071Y-35747357D01*
X11155357Y-35718786D01*
X11169643Y-35704500D01*
X11198214Y-35690214D01*
X11655357Y-35990214D02*
X11655357Y-35690214D01*
X11783928Y-35990214D02*
X11783928Y-35833072D01*
X11769643Y-35804500D01*
X11741071Y-35790214D01*
X11698214Y-35790214D01*
X11669643Y-35804500D01*
X11655357Y-35818786D01*
X11969643Y-35990214D02*
X11941071Y-35975929D01*
X11926786Y-35961643D01*
X11912500Y-35933072D01*
X11912500Y-35847357D01*
X11926786Y-35818786D01*
X11941071Y-35804500D01*
X11969643Y-35790214D01*
X12012500Y-35790214D01*
X12041071Y-35804500D01*
X12055357Y-35818786D01*
X12069643Y-35847357D01*
X12069643Y-35933072D01*
X12055357Y-35961643D01*
X12041071Y-35975929D01*
X12012500Y-35990214D01*
X11969643Y-35990214D01*
X12241071Y-35990214D02*
X12212500Y-35975929D01*
X12198214Y-35947357D01*
X12198214Y-35690214D01*
X12469643Y-35975929D02*
X12441071Y-35990214D01*
X12383928Y-35990214D01*
X12355357Y-35975929D01*
X12341071Y-35947357D01*
X12341071Y-35833072D01*
X12355357Y-35804500D01*
X12383928Y-35790214D01*
X12441071Y-35790214D01*
X12469643Y-35804500D01*
X12483928Y-35833072D01*
X12483928Y-35861643D01*
X12341071Y-35890214D01*
X12598214Y-35975929D02*
X12626786Y-35990214D01*
X12683928Y-35990214D01*
X12712500Y-35975929D01*
X12726786Y-35947357D01*
X12726786Y-35933072D01*
X12712500Y-35904500D01*
X12683928Y-35890214D01*
X12641071Y-35890214D01*
X12612500Y-35875929D01*
X12598214Y-35847357D01*
X12598214Y-35833072D01*
X12612500Y-35804500D01*
X12641071Y-35790214D01*
X12683928Y-35790214D01*
X12712500Y-35804500D01*
X12826786Y-36104500D02*
X12841071Y-36090214D01*
X12869643Y-36047357D01*
X12883928Y-36018786D01*
X12898214Y-35975929D01*
X12912500Y-35904500D01*
X12912500Y-35847357D01*
X12898214Y-35775929D01*
X12883928Y-35733072D01*
X12869643Y-35704500D01*
X12841071Y-35661643D01*
X12826786Y-35647357D01*
M02*
