M48
; DRILL file {KiCad (5.1.10)-1} date 11/14/21 07:23:16
; FORMAT={-:-/ absolute / metric / decimal}
; #@! TF.CreationDate,2021-11-14T07:23:16+08:00
; #@! TF.GenerationSoftware,Kicad,Pcbnew,(5.1.10)-1
; #@! TF.FileFunction,Plated,1,2,PTH
FMAT,2
METRIC
T1C1.000
T2C1.040
T3C1.500
%
G90
G05
T2
X127.104Y-58.096
X127.104Y-83.496
X129.644Y-58.096
X129.644Y-83.496
X132.184Y-58.096
X132.184Y-83.496
X134.724Y-58.096
X134.724Y-83.496
X137.264Y-58.096
X137.264Y-83.496
X139.804Y-58.096
X139.804Y-83.496
X142.344Y-58.096
X142.344Y-83.496
X144.884Y-58.096
X144.884Y-83.496
X147.424Y-58.096
X147.424Y-83.496
X149.964Y-58.096
X149.964Y-83.496
X152.504Y-58.096
X152.504Y-83.496
X155.044Y-58.096
X155.044Y-83.496
X157.584Y-58.096
X157.584Y-83.496
X160.124Y-58.096
X160.124Y-83.496
X162.664Y-58.096
X162.664Y-83.496
X165.204Y-58.096
X165.204Y-83.496
X167.744Y-58.096
X167.744Y-83.496
X170.284Y-58.096
X170.284Y-83.496
X172.824Y-58.096
X172.824Y-83.496
T3
X87.0Y-100.0
X87.0Y-130.0
X87.0Y-160.0
X87.0Y-190.0
X87.0Y-202.0
X87.0Y-232.0
X87.0Y-262.0
X87.0Y-292.0
X92.0Y-100.0
X92.0Y-130.0
X92.0Y-160.0
X92.0Y-190.0
X92.0Y-202.0
X92.0Y-232.0
X92.0Y-262.0
X92.0Y-292.0
X97.0Y-100.0
X97.0Y-130.0
X97.0Y-160.0
X97.0Y-190.0
X97.0Y-202.0
X97.0Y-232.0
X97.0Y-262.0
X97.0Y-292.0
X117.0Y-100.0
X117.0Y-130.0
X117.0Y-160.0
X117.0Y-190.0
X117.0Y-202.0
X117.0Y-232.0
X117.0Y-262.0
X117.0Y-292.0
X122.0Y-100.0
X122.0Y-130.0
X122.0Y-160.0
X122.0Y-190.0
X122.0Y-202.0
X122.0Y-232.0
X122.0Y-262.0
X122.0Y-292.0
X127.0Y-100.0
X127.0Y-130.0
X127.0Y-160.0
X127.0Y-190.0
X127.0Y-202.0
X127.0Y-232.0
X127.0Y-262.0
X127.0Y-292.0
X147.0Y-100.0
X147.0Y-130.0
X147.0Y-160.0
X147.0Y-190.0
X147.0Y-202.0
X147.0Y-232.0
X147.0Y-262.0
X147.0Y-292.0
X152.0Y-100.0
X152.0Y-130.0
X152.0Y-160.0
X152.0Y-190.0
X152.0Y-202.0
X152.0Y-232.0
X152.0Y-262.0
X152.0Y-292.0
X157.0Y-100.0
X157.0Y-130.0
X157.0Y-160.0
X157.0Y-190.0
X157.0Y-202.0
X157.0Y-232.0
X157.0Y-262.0
X157.0Y-292.0
X177.0Y-100.0
X177.0Y-130.0
X177.0Y-160.0
X177.0Y-190.0
X177.0Y-202.0
X177.0Y-232.0
X177.0Y-262.0
X177.0Y-292.0
X182.0Y-100.0
X182.0Y-130.0
X182.0Y-160.0
X182.0Y-190.0
X182.0Y-202.0
X182.0Y-232.0
X182.0Y-262.0
X182.0Y-292.0
X187.0Y-100.0
X187.0Y-130.0
X187.0Y-160.0
X187.0Y-190.0
X187.0Y-202.0
X187.0Y-232.0
X187.0Y-262.0
X187.0Y-292.0
X207.0Y-100.0
X207.0Y-130.0
X207.0Y-160.0
X207.0Y-190.0
X207.0Y-202.0
X207.0Y-232.0
X207.0Y-262.0
X207.0Y-292.0
X212.0Y-100.0
X212.0Y-130.0
X212.0Y-160.0
X212.0Y-190.0
X212.0Y-202.0
X212.0Y-232.0
X212.0Y-262.0
X212.0Y-292.0
X217.0Y-100.0
X217.0Y-130.0
X217.0Y-160.0
X217.0Y-190.0
X217.0Y-202.0
X217.0Y-232.0
X217.0Y-262.0
X217.0Y-292.0
X237.0Y-100.0
X237.0Y-130.0
X237.0Y-160.0
X237.0Y-190.0
X237.0Y-202.0
X237.0Y-232.0
X237.0Y-262.0
X237.0Y-292.0
X242.0Y-100.0
X242.0Y-130.0
X242.0Y-160.0
X242.0Y-190.0
X242.0Y-202.0
X242.0Y-232.0
X242.0Y-262.0
X242.0Y-292.0
X247.0Y-100.0
X247.0Y-130.0
X247.0Y-160.0
X247.0Y-190.0
X247.0Y-202.0
X247.0Y-232.0
X247.0Y-262.0
X247.0Y-292.0
X260.475Y-79.684
X263.975Y-76.184
X263.975Y-79.684
X267.0Y-100.0
X267.0Y-130.0
X267.0Y-160.0
X267.0Y-190.0
X267.0Y-202.0
X267.0Y-232.0
X267.0Y-262.0
X267.0Y-292.0
X267.475Y-72.684
X270.975Y-69.184
X272.0Y-100.0
X272.0Y-130.0
X272.0Y-160.0
X272.0Y-190.0
X272.0Y-202.0
X272.0Y-232.0
X272.0Y-262.0
X272.0Y-292.0
X274.475Y-65.684
X277.0Y-100.0
X277.0Y-130.0
X277.0Y-160.0
X277.0Y-190.0
X277.0Y-202.0
X277.0Y-232.0
X277.0Y-262.0
X277.0Y-292.0
X277.975Y-62.184
X281.475Y-58.684
X297.0Y-100.0
X297.0Y-130.0
X297.0Y-160.0
X297.0Y-190.0
X297.0Y-202.0
X297.0Y-232.0
X297.0Y-262.0
X297.0Y-292.0
X302.0Y-100.0
X302.0Y-130.0
X302.0Y-160.0
X302.0Y-190.0
X302.0Y-202.0
X302.0Y-232.0
X302.0Y-262.0
X302.0Y-292.0
X307.0Y-100.0
X307.0Y-130.0
X307.0Y-160.0
X307.0Y-190.0
X307.0Y-202.0
X307.0Y-232.0
X307.0Y-262.0
X307.0Y-292.0
T1
X313.121Y-76.164G85X313.121Y-78.164
G05
X315.121Y-72.464G85X317.121Y-72.464
G05
X319.121Y-76.164G85X319.121Y-78.164
G05
T0
M30
