G04 #@! TF.GenerationSoftware,KiCad,Pcbnew,(5.1.10)-1*
G04 #@! TF.CreationDate,2021-11-14T07:23:14+08:00*
G04 #@! TF.ProjectId,8x8x8-RGB-LED-Cube-PCB,38783878-382d-4524-9742-2d4c45442d43,rev?*
G04 #@! TF.SameCoordinates,Original*
G04 #@! TF.FileFunction,Legend,Top*
G04 #@! TF.FilePolarity,Positive*
%FSLAX46Y46*%
G04 Gerber Fmt 4.6, Leading zero omitted, Abs format (unit mm)*
G04 Created by KiCad (PCBNEW (5.1.10)-1) date 2021-11-14 07:23:14*
%MOMM*%
%LPD*%
G01*
G04 APERTURE LIST*
%ADD10C,0.127000*%
%ADD11C,0.150000*%
%ADD12C,2.800000*%
%ADD13R,1.560000X1.560000*%
%ADD14C,1.560000*%
%ADD15R,3.500000X3.500000*%
G04 APERTURE END LIST*
D10*
X174114000Y-84746200D02*
X119714000Y-84746200D01*
X119714000Y-84746200D02*
X119714000Y-56846200D01*
X119714000Y-56846200D02*
X174114000Y-56846200D01*
X174114000Y-56846200D02*
X174114000Y-84746200D01*
D11*
X262260714Y-82636580D02*
X262260714Y-81636580D01*
X262260714Y-82112771D02*
X262832142Y-82112771D01*
X262832142Y-82636580D02*
X262832142Y-81636580D01*
X263260714Y-81731819D02*
X263308333Y-81684200D01*
X263403571Y-81636580D01*
X263641666Y-81636580D01*
X263736904Y-81684200D01*
X263784523Y-81731819D01*
X263832142Y-81827057D01*
X263832142Y-81922295D01*
X263784523Y-82065152D01*
X263213095Y-82636580D01*
X263832142Y-82636580D01*
X264451190Y-81636580D02*
X264546428Y-81636580D01*
X264641666Y-81684200D01*
X264689285Y-81731819D01*
X264736904Y-81827057D01*
X264784523Y-82017533D01*
X264784523Y-82255628D01*
X264736904Y-82446104D01*
X264689285Y-82541342D01*
X264641666Y-82588961D01*
X264546428Y-82636580D01*
X264451190Y-82636580D01*
X264355952Y-82588961D01*
X264308333Y-82541342D01*
X264260714Y-82446104D01*
X264213095Y-82255628D01*
X264213095Y-82017533D01*
X264260714Y-81827057D01*
X264308333Y-81731819D01*
X264355952Y-81684200D01*
X264451190Y-81636580D01*
X265403571Y-81636580D02*
X265498809Y-81636580D01*
X265594047Y-81684200D01*
X265641666Y-81731819D01*
X265689285Y-81827057D01*
X265736904Y-82017533D01*
X265736904Y-82255628D01*
X265689285Y-82446104D01*
X265641666Y-82541342D01*
X265594047Y-82588961D01*
X265498809Y-82636580D01*
X265403571Y-82636580D01*
X265308333Y-82588961D01*
X265260714Y-82541342D01*
X265213095Y-82446104D01*
X265165476Y-82255628D01*
X265165476Y-82017533D01*
X265213095Y-81827057D01*
X265260714Y-81731819D01*
X265308333Y-81684200D01*
X265403571Y-81636580D01*
X279760714Y-61636580D02*
X279760714Y-60636580D01*
X279760714Y-61112771D02*
X280332142Y-61112771D01*
X280332142Y-61636580D02*
X280332142Y-60636580D01*
X281332142Y-61636580D02*
X280760714Y-61636580D01*
X281046428Y-61636580D02*
X281046428Y-60636580D01*
X280951190Y-60779438D01*
X280855952Y-60874676D01*
X280760714Y-60922295D01*
X281808333Y-61636580D02*
X281998809Y-61636580D01*
X282094047Y-61588961D01*
X282141666Y-61541342D01*
X282236904Y-61398485D01*
X282284523Y-61208009D01*
X282284523Y-60827057D01*
X282236904Y-60731819D01*
X282189285Y-60684200D01*
X282094047Y-60636580D01*
X281903571Y-60636580D01*
X281808333Y-60684200D01*
X281760714Y-60731819D01*
X281713095Y-60827057D01*
X281713095Y-61065152D01*
X281760714Y-61160390D01*
X281808333Y-61208009D01*
X281903571Y-61255628D01*
X282094047Y-61255628D01*
X282189285Y-61208009D01*
X282236904Y-61160390D01*
X282284523Y-61065152D01*
X282760714Y-61636580D02*
X282951190Y-61636580D01*
X283046428Y-61588961D01*
X283094047Y-61541342D01*
X283189285Y-61398485D01*
X283236904Y-61208009D01*
X283236904Y-60827057D01*
X283189285Y-60731819D01*
X283141666Y-60684200D01*
X283046428Y-60636580D01*
X282855952Y-60636580D01*
X282760714Y-60684200D01*
X282713095Y-60731819D01*
X282665476Y-60827057D01*
X282665476Y-61065152D01*
X282713095Y-61160390D01*
X282760714Y-61208009D01*
X282855952Y-61255628D01*
X283046428Y-61255628D01*
X283141666Y-61208009D01*
X283189285Y-61160390D01*
X283236904Y-61065152D01*
X276260714Y-65136580D02*
X276260714Y-64136580D01*
X276260714Y-64612771D02*
X276832142Y-64612771D01*
X276832142Y-65136580D02*
X276832142Y-64136580D01*
X277832142Y-65136580D02*
X277260714Y-65136580D01*
X277546428Y-65136580D02*
X277546428Y-64136580D01*
X277451190Y-64279438D01*
X277355952Y-64374676D01*
X277260714Y-64422295D01*
X278308333Y-65136580D02*
X278498809Y-65136580D01*
X278594047Y-65088961D01*
X278641666Y-65041342D01*
X278736904Y-64898485D01*
X278784523Y-64708009D01*
X278784523Y-64327057D01*
X278736904Y-64231819D01*
X278689285Y-64184200D01*
X278594047Y-64136580D01*
X278403571Y-64136580D01*
X278308333Y-64184200D01*
X278260714Y-64231819D01*
X278213095Y-64327057D01*
X278213095Y-64565152D01*
X278260714Y-64660390D01*
X278308333Y-64708009D01*
X278403571Y-64755628D01*
X278594047Y-64755628D01*
X278689285Y-64708009D01*
X278736904Y-64660390D01*
X278784523Y-64565152D01*
X279355952Y-64565152D02*
X279260714Y-64517533D01*
X279213095Y-64469914D01*
X279165476Y-64374676D01*
X279165476Y-64327057D01*
X279213095Y-64231819D01*
X279260714Y-64184200D01*
X279355952Y-64136580D01*
X279546428Y-64136580D01*
X279641666Y-64184200D01*
X279689285Y-64231819D01*
X279736904Y-64327057D01*
X279736904Y-64374676D01*
X279689285Y-64469914D01*
X279641666Y-64517533D01*
X279546428Y-64565152D01*
X279355952Y-64565152D01*
X279260714Y-64612771D01*
X279213095Y-64660390D01*
X279165476Y-64755628D01*
X279165476Y-64946104D01*
X279213095Y-65041342D01*
X279260714Y-65088961D01*
X279355952Y-65136580D01*
X279546428Y-65136580D01*
X279641666Y-65088961D01*
X279689285Y-65041342D01*
X279736904Y-64946104D01*
X279736904Y-64755628D01*
X279689285Y-64660390D01*
X279641666Y-64612771D01*
X279546428Y-64565152D01*
X272760714Y-68636580D02*
X272760714Y-67636580D01*
X272760714Y-68112771D02*
X273332142Y-68112771D01*
X273332142Y-68636580D02*
X273332142Y-67636580D01*
X274332142Y-68636580D02*
X273760714Y-68636580D01*
X274046428Y-68636580D02*
X274046428Y-67636580D01*
X273951190Y-67779438D01*
X273855952Y-67874676D01*
X273760714Y-67922295D01*
X274808333Y-68636580D02*
X274998809Y-68636580D01*
X275094047Y-68588961D01*
X275141666Y-68541342D01*
X275236904Y-68398485D01*
X275284523Y-68208009D01*
X275284523Y-67827057D01*
X275236904Y-67731819D01*
X275189285Y-67684200D01*
X275094047Y-67636580D01*
X274903571Y-67636580D01*
X274808333Y-67684200D01*
X274760714Y-67731819D01*
X274713095Y-67827057D01*
X274713095Y-68065152D01*
X274760714Y-68160390D01*
X274808333Y-68208009D01*
X274903571Y-68255628D01*
X275094047Y-68255628D01*
X275189285Y-68208009D01*
X275236904Y-68160390D01*
X275284523Y-68065152D01*
X275617857Y-67636580D02*
X276284523Y-67636580D01*
X275855952Y-68636580D01*
X269260714Y-72136580D02*
X269260714Y-71136580D01*
X269260714Y-71612771D02*
X269832142Y-71612771D01*
X269832142Y-72136580D02*
X269832142Y-71136580D01*
X270832142Y-72136580D02*
X270260714Y-72136580D01*
X270546428Y-72136580D02*
X270546428Y-71136580D01*
X270451190Y-71279438D01*
X270355952Y-71374676D01*
X270260714Y-71422295D01*
X271308333Y-72136580D02*
X271498809Y-72136580D01*
X271594047Y-72088961D01*
X271641666Y-72041342D01*
X271736904Y-71898485D01*
X271784523Y-71708009D01*
X271784523Y-71327057D01*
X271736904Y-71231819D01*
X271689285Y-71184200D01*
X271594047Y-71136580D01*
X271403571Y-71136580D01*
X271308333Y-71184200D01*
X271260714Y-71231819D01*
X271213095Y-71327057D01*
X271213095Y-71565152D01*
X271260714Y-71660390D01*
X271308333Y-71708009D01*
X271403571Y-71755628D01*
X271594047Y-71755628D01*
X271689285Y-71708009D01*
X271736904Y-71660390D01*
X271784523Y-71565152D01*
X272641666Y-71136580D02*
X272451190Y-71136580D01*
X272355952Y-71184200D01*
X272308333Y-71231819D01*
X272213095Y-71374676D01*
X272165476Y-71565152D01*
X272165476Y-71946104D01*
X272213095Y-72041342D01*
X272260714Y-72088961D01*
X272355952Y-72136580D01*
X272546428Y-72136580D01*
X272641666Y-72088961D01*
X272689285Y-72041342D01*
X272736904Y-71946104D01*
X272736904Y-71708009D01*
X272689285Y-71612771D01*
X272641666Y-71565152D01*
X272546428Y-71517533D01*
X272355952Y-71517533D01*
X272260714Y-71565152D01*
X272213095Y-71612771D01*
X272165476Y-71708009D01*
X265760714Y-75636580D02*
X265760714Y-74636580D01*
X265760714Y-75112771D02*
X266332142Y-75112771D01*
X266332142Y-75636580D02*
X266332142Y-74636580D01*
X267332142Y-75636580D02*
X266760714Y-75636580D01*
X267046428Y-75636580D02*
X267046428Y-74636580D01*
X266951190Y-74779438D01*
X266855952Y-74874676D01*
X266760714Y-74922295D01*
X267808333Y-75636580D02*
X267998809Y-75636580D01*
X268094047Y-75588961D01*
X268141666Y-75541342D01*
X268236904Y-75398485D01*
X268284523Y-75208009D01*
X268284523Y-74827057D01*
X268236904Y-74731819D01*
X268189285Y-74684200D01*
X268094047Y-74636580D01*
X267903571Y-74636580D01*
X267808333Y-74684200D01*
X267760714Y-74731819D01*
X267713095Y-74827057D01*
X267713095Y-75065152D01*
X267760714Y-75160390D01*
X267808333Y-75208009D01*
X267903571Y-75255628D01*
X268094047Y-75255628D01*
X268189285Y-75208009D01*
X268236904Y-75160390D01*
X268284523Y-75065152D01*
X269189285Y-74636580D02*
X268713095Y-74636580D01*
X268665476Y-75112771D01*
X268713095Y-75065152D01*
X268808333Y-75017533D01*
X269046428Y-75017533D01*
X269141666Y-75065152D01*
X269189285Y-75112771D01*
X269236904Y-75208009D01*
X269236904Y-75446104D01*
X269189285Y-75541342D01*
X269141666Y-75588961D01*
X269046428Y-75636580D01*
X268808333Y-75636580D01*
X268713095Y-75588961D01*
X268665476Y-75541342D01*
X262260714Y-79136580D02*
X262260714Y-78136580D01*
X262260714Y-78612771D02*
X262832142Y-78612771D01*
X262832142Y-79136580D02*
X262832142Y-78136580D01*
X263832142Y-79136580D02*
X263260714Y-79136580D01*
X263546428Y-79136580D02*
X263546428Y-78136580D01*
X263451190Y-78279438D01*
X263355952Y-78374676D01*
X263260714Y-78422295D01*
X264308333Y-79136580D02*
X264498809Y-79136580D01*
X264594047Y-79088961D01*
X264641666Y-79041342D01*
X264736904Y-78898485D01*
X264784523Y-78708009D01*
X264784523Y-78327057D01*
X264736904Y-78231819D01*
X264689285Y-78184200D01*
X264594047Y-78136580D01*
X264403571Y-78136580D01*
X264308333Y-78184200D01*
X264260714Y-78231819D01*
X264213095Y-78327057D01*
X264213095Y-78565152D01*
X264260714Y-78660390D01*
X264308333Y-78708009D01*
X264403571Y-78755628D01*
X264594047Y-78755628D01*
X264689285Y-78708009D01*
X264736904Y-78660390D01*
X264784523Y-78565152D01*
X265641666Y-78469914D02*
X265641666Y-79136580D01*
X265403571Y-78088961D02*
X265165476Y-78803247D01*
X265784523Y-78803247D01*
X258760714Y-82636580D02*
X258760714Y-81636580D01*
X258760714Y-82112771D02*
X259332142Y-82112771D01*
X259332142Y-82636580D02*
X259332142Y-81636580D01*
X260332142Y-82636580D02*
X259760714Y-82636580D01*
X260046428Y-82636580D02*
X260046428Y-81636580D01*
X259951190Y-81779438D01*
X259855952Y-81874676D01*
X259760714Y-81922295D01*
X260808333Y-82636580D02*
X260998809Y-82636580D01*
X261094047Y-82588961D01*
X261141666Y-82541342D01*
X261236904Y-82398485D01*
X261284523Y-82208009D01*
X261284523Y-81827057D01*
X261236904Y-81731819D01*
X261189285Y-81684200D01*
X261094047Y-81636580D01*
X260903571Y-81636580D01*
X260808333Y-81684200D01*
X260760714Y-81731819D01*
X260713095Y-81827057D01*
X260713095Y-82065152D01*
X260760714Y-82160390D01*
X260808333Y-82208009D01*
X260903571Y-82255628D01*
X261094047Y-82255628D01*
X261189285Y-82208009D01*
X261236904Y-82160390D01*
X261284523Y-82065152D01*
X261617857Y-81636580D02*
X262236904Y-81636580D01*
X261903571Y-82017533D01*
X262046428Y-82017533D01*
X262141666Y-82065152D01*
X262189285Y-82112771D01*
X262236904Y-82208009D01*
X262236904Y-82446104D01*
X262189285Y-82541342D01*
X262141666Y-82588961D01*
X262046428Y-82636580D01*
X261760714Y-82636580D01*
X261665476Y-82588961D01*
X261617857Y-82541342D01*
X211309980Y-72966733D02*
X211309980Y-72395304D01*
X212309980Y-72681019D02*
X211309980Y-72681019D01*
X211309980Y-71871495D02*
X211309980Y-71681019D01*
X211357600Y-71585780D01*
X211452838Y-71490542D01*
X211643314Y-71442923D01*
X211976647Y-71442923D01*
X212167123Y-71490542D01*
X212262361Y-71585780D01*
X212309980Y-71681019D01*
X212309980Y-71871495D01*
X212262361Y-71966733D01*
X212167123Y-72061971D01*
X211976647Y-72109590D01*
X211643314Y-72109590D01*
X211452838Y-72061971D01*
X211357600Y-71966733D01*
X211309980Y-71871495D01*
X211309980Y-71014352D02*
X212119504Y-71014352D01*
X212214742Y-70966733D01*
X212262361Y-70919114D01*
X212309980Y-70823876D01*
X212309980Y-70633400D01*
X212262361Y-70538161D01*
X212214742Y-70490542D01*
X212119504Y-70442923D01*
X211309980Y-70442923D01*
X212214742Y-69395304D02*
X212262361Y-69442923D01*
X212309980Y-69585780D01*
X212309980Y-69681019D01*
X212262361Y-69823876D01*
X212167123Y-69919114D01*
X212071885Y-69966733D01*
X211881409Y-70014352D01*
X211738552Y-70014352D01*
X211548076Y-69966733D01*
X211452838Y-69919114D01*
X211357600Y-69823876D01*
X211309980Y-69681019D01*
X211309980Y-69585780D01*
X211357600Y-69442923D01*
X211405219Y-69395304D01*
X212309980Y-68966733D02*
X211309980Y-68966733D01*
X211786171Y-68966733D02*
X211786171Y-68395304D01*
X212309980Y-68395304D02*
X211309980Y-68395304D01*
X211309980Y-67442923D02*
X211309980Y-67919114D01*
X211786171Y-67966733D01*
X211738552Y-67919114D01*
X211690933Y-67823876D01*
X211690933Y-67585780D01*
X211738552Y-67490542D01*
X211786171Y-67442923D01*
X211881409Y-67395304D01*
X212119504Y-67395304D01*
X212214742Y-67442923D01*
X212262361Y-67490542D01*
X212309980Y-67585780D01*
X212309980Y-67823876D01*
X212262361Y-67919114D01*
X212214742Y-67966733D01*
X256309980Y-72966733D02*
X256309980Y-72395304D01*
X257309980Y-72681019D02*
X256309980Y-72681019D01*
X256309980Y-71871495D02*
X256309980Y-71681019D01*
X256357600Y-71585780D01*
X256452838Y-71490542D01*
X256643314Y-71442923D01*
X256976647Y-71442923D01*
X257167123Y-71490542D01*
X257262361Y-71585780D01*
X257309980Y-71681019D01*
X257309980Y-71871495D01*
X257262361Y-71966733D01*
X257167123Y-72061971D01*
X256976647Y-72109590D01*
X256643314Y-72109590D01*
X256452838Y-72061971D01*
X256357600Y-71966733D01*
X256309980Y-71871495D01*
X256309980Y-71014352D02*
X257119504Y-71014352D01*
X257214742Y-70966733D01*
X257262361Y-70919114D01*
X257309980Y-70823876D01*
X257309980Y-70633400D01*
X257262361Y-70538161D01*
X257214742Y-70490542D01*
X257119504Y-70442923D01*
X256309980Y-70442923D01*
X257214742Y-69395304D02*
X257262361Y-69442923D01*
X257309980Y-69585780D01*
X257309980Y-69681019D01*
X257262361Y-69823876D01*
X257167123Y-69919114D01*
X257071885Y-69966733D01*
X256881409Y-70014352D01*
X256738552Y-70014352D01*
X256548076Y-69966733D01*
X256452838Y-69919114D01*
X256357600Y-69823876D01*
X256309980Y-69681019D01*
X256309980Y-69585780D01*
X256357600Y-69442923D01*
X256405219Y-69395304D01*
X257309980Y-68966733D02*
X256309980Y-68966733D01*
X256786171Y-68966733D02*
X256786171Y-68395304D01*
X257309980Y-68395304D02*
X256309980Y-68395304D01*
X256643314Y-67490542D02*
X257309980Y-67490542D01*
X256262361Y-67728638D02*
X256976647Y-67966733D01*
X256976647Y-67347685D01*
X196309980Y-72966733D02*
X196309980Y-72395304D01*
X197309980Y-72681019D02*
X196309980Y-72681019D01*
X196309980Y-71871495D02*
X196309980Y-71681019D01*
X196357600Y-71585780D01*
X196452838Y-71490542D01*
X196643314Y-71442923D01*
X196976647Y-71442923D01*
X197167123Y-71490542D01*
X197262361Y-71585780D01*
X197309980Y-71681019D01*
X197309980Y-71871495D01*
X197262361Y-71966733D01*
X197167123Y-72061971D01*
X196976647Y-72109590D01*
X196643314Y-72109590D01*
X196452838Y-72061971D01*
X196357600Y-71966733D01*
X196309980Y-71871495D01*
X196309980Y-71014352D02*
X197119504Y-71014352D01*
X197214742Y-70966733D01*
X197262361Y-70919114D01*
X197309980Y-70823876D01*
X197309980Y-70633400D01*
X197262361Y-70538161D01*
X197214742Y-70490542D01*
X197119504Y-70442923D01*
X196309980Y-70442923D01*
X197214742Y-69395304D02*
X197262361Y-69442923D01*
X197309980Y-69585780D01*
X197309980Y-69681019D01*
X197262361Y-69823876D01*
X197167123Y-69919114D01*
X197071885Y-69966733D01*
X196881409Y-70014352D01*
X196738552Y-70014352D01*
X196548076Y-69966733D01*
X196452838Y-69919114D01*
X196357600Y-69823876D01*
X196309980Y-69681019D01*
X196309980Y-69585780D01*
X196357600Y-69442923D01*
X196405219Y-69395304D01*
X197309980Y-68966733D02*
X196309980Y-68966733D01*
X196786171Y-68966733D02*
X196786171Y-68395304D01*
X197309980Y-68395304D02*
X196309980Y-68395304D01*
X196309980Y-68014352D02*
X196309980Y-67395304D01*
X196690933Y-67728638D01*
X196690933Y-67585780D01*
X196738552Y-67490542D01*
X196786171Y-67442923D01*
X196881409Y-67395304D01*
X197119504Y-67395304D01*
X197214742Y-67442923D01*
X197262361Y-67490542D01*
X197309980Y-67585780D01*
X197309980Y-67871495D01*
X197262361Y-67966733D01*
X197214742Y-68014352D01*
X241309980Y-72966733D02*
X241309980Y-72395304D01*
X242309980Y-72681019D02*
X241309980Y-72681019D01*
X241309980Y-71871495D02*
X241309980Y-71681019D01*
X241357600Y-71585780D01*
X241452838Y-71490542D01*
X241643314Y-71442923D01*
X241976647Y-71442923D01*
X242167123Y-71490542D01*
X242262361Y-71585780D01*
X242309980Y-71681019D01*
X242309980Y-71871495D01*
X242262361Y-71966733D01*
X242167123Y-72061971D01*
X241976647Y-72109590D01*
X241643314Y-72109590D01*
X241452838Y-72061971D01*
X241357600Y-71966733D01*
X241309980Y-71871495D01*
X241309980Y-71014352D02*
X242119504Y-71014352D01*
X242214742Y-70966733D01*
X242262361Y-70919114D01*
X242309980Y-70823876D01*
X242309980Y-70633400D01*
X242262361Y-70538161D01*
X242214742Y-70490542D01*
X242119504Y-70442923D01*
X241309980Y-70442923D01*
X242214742Y-69395304D02*
X242262361Y-69442923D01*
X242309980Y-69585780D01*
X242309980Y-69681019D01*
X242262361Y-69823876D01*
X242167123Y-69919114D01*
X242071885Y-69966733D01*
X241881409Y-70014352D01*
X241738552Y-70014352D01*
X241548076Y-69966733D01*
X241452838Y-69919114D01*
X241357600Y-69823876D01*
X241309980Y-69681019D01*
X241309980Y-69585780D01*
X241357600Y-69442923D01*
X241405219Y-69395304D01*
X242309980Y-68966733D02*
X241309980Y-68966733D01*
X241786171Y-68966733D02*
X241786171Y-68395304D01*
X242309980Y-68395304D02*
X241309980Y-68395304D01*
X241405219Y-67966733D02*
X241357600Y-67919114D01*
X241309980Y-67823876D01*
X241309980Y-67585780D01*
X241357600Y-67490542D01*
X241405219Y-67442923D01*
X241500457Y-67395304D01*
X241595695Y-67395304D01*
X241738552Y-67442923D01*
X242309980Y-68014352D01*
X242309980Y-67395304D01*
X226309980Y-72966733D02*
X226309980Y-72395304D01*
X227309980Y-72681019D02*
X226309980Y-72681019D01*
X226309980Y-71871495D02*
X226309980Y-71681019D01*
X226357600Y-71585780D01*
X226452838Y-71490542D01*
X226643314Y-71442923D01*
X226976647Y-71442923D01*
X227167123Y-71490542D01*
X227262361Y-71585780D01*
X227309980Y-71681019D01*
X227309980Y-71871495D01*
X227262361Y-71966733D01*
X227167123Y-72061971D01*
X226976647Y-72109590D01*
X226643314Y-72109590D01*
X226452838Y-72061971D01*
X226357600Y-71966733D01*
X226309980Y-71871495D01*
X226309980Y-71014352D02*
X227119504Y-71014352D01*
X227214742Y-70966733D01*
X227262361Y-70919114D01*
X227309980Y-70823876D01*
X227309980Y-70633400D01*
X227262361Y-70538161D01*
X227214742Y-70490542D01*
X227119504Y-70442923D01*
X226309980Y-70442923D01*
X227214742Y-69395304D02*
X227262361Y-69442923D01*
X227309980Y-69585780D01*
X227309980Y-69681019D01*
X227262361Y-69823876D01*
X227167123Y-69919114D01*
X227071885Y-69966733D01*
X226881409Y-70014352D01*
X226738552Y-70014352D01*
X226548076Y-69966733D01*
X226452838Y-69919114D01*
X226357600Y-69823876D01*
X226309980Y-69681019D01*
X226309980Y-69585780D01*
X226357600Y-69442923D01*
X226405219Y-69395304D01*
X227309980Y-68966733D02*
X226309980Y-68966733D01*
X226786171Y-68966733D02*
X226786171Y-68395304D01*
X227309980Y-68395304D02*
X226309980Y-68395304D01*
X227309980Y-67395304D02*
X227309980Y-67966733D01*
X227309980Y-67681019D02*
X226309980Y-67681019D01*
X226452838Y-67776257D01*
X226548076Y-67871495D01*
X226595695Y-67966733D01*
X118346498Y-83292685D02*
X118346498Y-82959223D01*
X118870510Y-82816310D02*
X118870510Y-83292685D01*
X117870124Y-83292685D01*
X117870124Y-82816310D01*
X118822873Y-82435211D02*
X118870510Y-82292299D01*
X118870510Y-82054111D01*
X118822873Y-81958837D01*
X118775235Y-81911199D01*
X118679960Y-81863562D01*
X118584686Y-81863562D01*
X118489411Y-81911199D01*
X118441773Y-81958837D01*
X118394136Y-82054111D01*
X118346498Y-82244661D01*
X118298861Y-82339936D01*
X118251224Y-82387573D01*
X118155949Y-82435211D01*
X118060674Y-82435211D01*
X117965399Y-82387573D01*
X117917762Y-82339936D01*
X117870124Y-82244661D01*
X117870124Y-82006474D01*
X117917762Y-81863562D01*
X118870510Y-81434825D02*
X117870124Y-81434825D01*
X117870124Y-81053725D01*
X117917762Y-80958451D01*
X117965399Y-80910813D01*
X118060674Y-80863176D01*
X118203586Y-80863176D01*
X118298861Y-80910813D01*
X118346498Y-80958451D01*
X118394136Y-81053725D01*
X118394136Y-81434825D01*
X118870510Y-79910427D02*
X118870510Y-80482076D01*
X118870510Y-80196252D02*
X117870124Y-80196252D01*
X118013036Y-80291527D01*
X118108311Y-80386801D01*
X118155949Y-80482076D01*
%LPC*%
D12*
X263975000Y-79684200D03*
X281475000Y-58684200D03*
X277975000Y-62184200D03*
X274475000Y-65684200D03*
X270975000Y-69184200D03*
X267475000Y-72684200D03*
X263975000Y-76184200D03*
X260475000Y-79684200D03*
X297000000Y-292000000D03*
X267000000Y-292000000D03*
X237000000Y-292000000D03*
X207000000Y-292000000D03*
X177000000Y-292000000D03*
X147000000Y-292000000D03*
X117000000Y-292000000D03*
X87000000Y-292000000D03*
X302000000Y-292000000D03*
X272000000Y-292000000D03*
X242000000Y-292000000D03*
X212000000Y-292000000D03*
X182000000Y-292000000D03*
X152000000Y-292000000D03*
X122000000Y-292000000D03*
X92000000Y-292000000D03*
X307000000Y-292000000D03*
X277000000Y-292000000D03*
X247000000Y-292000000D03*
X217000000Y-292000000D03*
X187000000Y-292000000D03*
X157000000Y-292000000D03*
X127000000Y-292000000D03*
X97000000Y-292000000D03*
X297000000Y-262000000D03*
X267000000Y-262000000D03*
X237000000Y-262000000D03*
X207000000Y-262000000D03*
X177000000Y-262000000D03*
X147000000Y-262000000D03*
X117000000Y-262000000D03*
X87000000Y-262000000D03*
X302000000Y-262000000D03*
X272000000Y-262000000D03*
X242000000Y-262000000D03*
X212000000Y-262000000D03*
X182000000Y-262000000D03*
X152000000Y-262000000D03*
X122000000Y-262000000D03*
X92000000Y-262000000D03*
X307000000Y-262000000D03*
X277000000Y-262000000D03*
X247000000Y-262000000D03*
X217000000Y-262000000D03*
X187000000Y-262000000D03*
X157000000Y-262000000D03*
X127000000Y-262000000D03*
X97000000Y-262000000D03*
X297000000Y-232000000D03*
X267000000Y-232000000D03*
X237000000Y-232000000D03*
X207000000Y-232000000D03*
X177000000Y-232000000D03*
X147000000Y-232000000D03*
X117000000Y-232000000D03*
X87000000Y-232000000D03*
X302000000Y-232000000D03*
X272000000Y-232000000D03*
X242000000Y-232000000D03*
X212000000Y-232000000D03*
X182000000Y-232000000D03*
X152000000Y-232000000D03*
X122000000Y-232000000D03*
X92000000Y-232000000D03*
X307000000Y-232000000D03*
X277000000Y-232000000D03*
X247000000Y-232000000D03*
X217000000Y-232000000D03*
X187000000Y-232000000D03*
X157000000Y-232000000D03*
X127000000Y-232000000D03*
X97000000Y-232000000D03*
X297000000Y-202000000D03*
X267000000Y-202000000D03*
X237000000Y-202000000D03*
X207000000Y-202000000D03*
X177000000Y-202000000D03*
X147000000Y-202000000D03*
X117000000Y-202000000D03*
X87000000Y-202000000D03*
X302000000Y-202000000D03*
X272000000Y-202000000D03*
X242000000Y-202000000D03*
X212000000Y-202000000D03*
X182000000Y-202000000D03*
X152000000Y-202000000D03*
X122000000Y-202000000D03*
X92000000Y-202000000D03*
X307000000Y-202000000D03*
X277000000Y-202000000D03*
X247000000Y-202000000D03*
X217000000Y-202000000D03*
X187000000Y-202000000D03*
X157000000Y-202000000D03*
X127000000Y-202000000D03*
X97000000Y-202000000D03*
X307000000Y-190000000D03*
X277000000Y-190000000D03*
X247000000Y-190000000D03*
X217000000Y-190000000D03*
X187000000Y-190000000D03*
X157000000Y-190000000D03*
X127000000Y-190000000D03*
X97000000Y-190000000D03*
X302000000Y-190000000D03*
X272000000Y-190000000D03*
X242000000Y-190000000D03*
X212000000Y-190000000D03*
X182000000Y-190000000D03*
X152000000Y-190000000D03*
X122000000Y-190000000D03*
X92000000Y-190000000D03*
X297000000Y-190000000D03*
X267000000Y-190000000D03*
X237000000Y-190000000D03*
X207000000Y-190000000D03*
X177000000Y-190000000D03*
X147000000Y-190000000D03*
X117000000Y-190000000D03*
X87000000Y-190000000D03*
X307000000Y-160000000D03*
X277000000Y-160000000D03*
X247000000Y-160000000D03*
X217000000Y-160000000D03*
X187000000Y-160000000D03*
X157000000Y-160000000D03*
X127000000Y-160000000D03*
X97000000Y-160000000D03*
X302000000Y-160000000D03*
X272000000Y-160000000D03*
X242000000Y-160000000D03*
X212000000Y-160000000D03*
X182000000Y-160000000D03*
X152000000Y-160000000D03*
X122000000Y-160000000D03*
X92000000Y-160000000D03*
X297000000Y-160000000D03*
X267000000Y-160000000D03*
X237000000Y-160000000D03*
X207000000Y-160000000D03*
X177000000Y-160000000D03*
X147000000Y-160000000D03*
X117000000Y-160000000D03*
X87000000Y-160000000D03*
X307000000Y-130000000D03*
X277000000Y-130000000D03*
X247000000Y-130000000D03*
X217000000Y-130000000D03*
X187000000Y-130000000D03*
X157000000Y-130000000D03*
X127000000Y-130000000D03*
X97000000Y-130000000D03*
X302000000Y-130000000D03*
X272000000Y-130000000D03*
X242000000Y-130000000D03*
X212000000Y-130000000D03*
X182000000Y-130000000D03*
X152000000Y-130000000D03*
X122000000Y-130000000D03*
X92000000Y-130000000D03*
X297000000Y-130000000D03*
X267000000Y-130000000D03*
X237000000Y-130000000D03*
X207000000Y-130000000D03*
X177000000Y-130000000D03*
X147000000Y-130000000D03*
X117000000Y-130000000D03*
X87000000Y-130000000D03*
X307000000Y-100000000D03*
X277000000Y-100000000D03*
X247000000Y-100000000D03*
X217000000Y-100000000D03*
X187000000Y-100000000D03*
X157000000Y-100000000D03*
X127000000Y-100000000D03*
X97000000Y-100000000D03*
X302000000Y-100000000D03*
X272000000Y-100000000D03*
X242000000Y-100000000D03*
X212000000Y-100000000D03*
X182000000Y-100000000D03*
X152000000Y-100000000D03*
X122000000Y-100000000D03*
X92000000Y-100000000D03*
X297000000Y-100000000D03*
X267000000Y-100000000D03*
X237000000Y-100000000D03*
X207000000Y-100000000D03*
X177000000Y-100000000D03*
X147000000Y-100000000D03*
X117000000Y-100000000D03*
X87000000Y-100000000D03*
D13*
X127104000Y-83496200D03*
D14*
X129644000Y-83496200D03*
X172824000Y-83496200D03*
X132184000Y-83496200D03*
X134724000Y-83496200D03*
X137264000Y-83496200D03*
X139804000Y-83496200D03*
X142344000Y-83496200D03*
X144884000Y-83496200D03*
X147424000Y-83496200D03*
X149964000Y-83496200D03*
X152504000Y-83496200D03*
X155044000Y-83496200D03*
X157584000Y-83496200D03*
X160124000Y-83496200D03*
X162664000Y-83496200D03*
X165204000Y-83496200D03*
X167744000Y-83496200D03*
X170284000Y-83496200D03*
X127104000Y-58096200D03*
X129644000Y-58096200D03*
X132184000Y-58096200D03*
X134724000Y-58096200D03*
X137264000Y-58096200D03*
X139804000Y-58096200D03*
X142344000Y-58096200D03*
X144884000Y-58096200D03*
X147424000Y-58096200D03*
X149964000Y-58096200D03*
X152504000Y-58096200D03*
X155044000Y-58096200D03*
X157584000Y-58096200D03*
X160124000Y-58096200D03*
X162664000Y-58096200D03*
X165204000Y-58096200D03*
X167744000Y-58096200D03*
X170284000Y-58096200D03*
X172824000Y-58096200D03*
D15*
X319121024Y-77163968D03*
G36*
G01*
X311621024Y-78163968D02*
X311621024Y-76163968D01*
G75*
G02*
X312371024Y-75413968I750000J0D01*
G01*
X313871024Y-75413968D01*
G75*
G02*
X314621024Y-76163968I0J-750000D01*
G01*
X314621024Y-78163968D01*
G75*
G02*
X313871024Y-78913968I-750000J0D01*
G01*
X312371024Y-78913968D01*
G75*
G02*
X311621024Y-78163968I0J750000D01*
G01*
G37*
G36*
G01*
X314371024Y-73338968D02*
X314371024Y-71588968D01*
G75*
G02*
X315246024Y-70713968I875000J0D01*
G01*
X316996024Y-70713968D01*
G75*
G02*
X317871024Y-71588968I0J-875000D01*
G01*
X317871024Y-73338968D01*
G75*
G02*
X316996024Y-74213968I-875000J0D01*
G01*
X315246024Y-74213968D01*
G75*
G02*
X314371024Y-73338968I0J875000D01*
G01*
G37*
M02*
