M48
; DRILL file {KiCad (5.1.10)-1} date 11/18/21 01:54:57
; FORMAT={-:-/ absolute / inch / decimal}
; #@! TF.CreationDate,2021-11-18T01:54:57+08:00
; #@! TF.GenerationSoftware,Kicad,Pcbnew,(5.1.10)-1
; #@! TF.FileFunction,Plated,1,2,PTH
FMAT,2
INCH
T1C0.0098
T2C0.0394
T3C0.0409
T4C0.0591
%
G90
G05
T1
X2.5039Y-3.2854
X2.5039Y-4.579
X2.5039Y-7.1662
X2.5039Y-8.4598
X2.5039Y-9.7534
X2.5039Y-11.047
X2.5039Y-12.3406
X2.5052Y-5.8713
X3.1319Y-2.3465
X3.3248Y-12.9685
X3.34Y-9.0173
X3.34Y-11.3795
X3.3858Y-3.5827
X3.3858Y-5.9449
X3.3858Y-9.9606
X3.4646Y-5.4724
X3.4646Y-7.6772
X3.4646Y-7.8346
X3.4646Y-9.4882
X3.4646Y-11.8504
X3.524Y-8.0583
X3.524Y-10.4205
X3.5827Y-3.5827
X3.5827Y-5.9449
X3.5827Y-9.9606
X3.586Y-4.9543
X3.586Y-7.3165
X3.586Y-8.97
X3.586Y-11.3322
X3.6614Y-5.4724
X3.6614Y-9.4882
X3.6614Y-11.8504
X3.7205Y-7.6772
X3.7205Y-7.8346
X3.731Y-5.0013
X3.731Y-7.3635
X3.7795Y-3.5827
X3.7795Y-5.9449
X3.7795Y-9.9606
X3.8583Y-5.4724
X3.8583Y-9.4882
X3.8583Y-11.8504
X3.917Y-8.2143
X3.917Y-8.2773
X3.917Y-10.5765
X3.917Y-10.6395
X3.954Y-4.0563
X3.954Y-6.4185
X3.9764Y-7.6772
X3.9764Y-7.8346
X4.1149Y-3.7763
X4.1732Y-3.8976
X4.2139Y-3.6013
X4.4255Y-2.2283
X4.448Y-3.8373
X4.532Y-8.9963
X4.532Y-11.3585
X4.5669Y-3.5827
X4.5669Y-5.9449
X4.5669Y-9.9606
X4.57Y-4.9143
X4.57Y-7.2765
X4.6184Y-12.9685
X4.6457Y-5.4724
X4.6457Y-7.6772
X4.6457Y-7.8346
X4.6457Y-9.4882
X4.6457Y-11.8504
X4.704Y-8.1783
X4.704Y-10.5405
X4.7411Y-4.2293
X4.7411Y-6.5915
X4.7411Y-8.245
X4.7411Y-10.6072
X4.7638Y-3.5827
X4.7638Y-5.9449
X4.7638Y-9.9606
X4.768Y-4.9593
X4.768Y-7.3215
X4.768Y-8.975
X4.768Y-11.3372
X4.781Y-4.5513
X4.781Y-6.9135
X4.781Y-8.567
X4.781Y-10.9292
X4.8425Y-5.4724
X4.8425Y-9.4882
X4.8425Y-11.8504
X4.9016Y-7.6772
X4.9016Y-7.8346
X4.902Y-8.2193
X4.902Y-10.5815
X4.9038Y-6.9885
X4.9038Y-8.642
X4.9038Y-11.0042
X4.904Y-4.6263
X4.914Y-4.9983
X4.914Y-7.3605
X4.9606Y-3.5827
X4.9606Y-5.9449
X4.9606Y-9.9606
X4.964Y-8.9283
X4.964Y-11.2905
X5.036Y-4.1623
X5.036Y-6.5245
X5.0394Y-5.4724
X5.0394Y-9.4882
X5.0394Y-11.8504
X5.0536Y-4.4983
X5.0536Y-6.8605
X5.0536Y-8.514
X5.0536Y-10.8762
X5.093Y-4.2033
X5.093Y-6.5655
X5.1036Y-4.5213
X5.1036Y-6.8835
X5.1036Y-8.537
X5.1036Y-10.8992
X5.1546Y-4.5433
X5.1546Y-6.9055
X5.1546Y-8.559
X5.1546Y-10.9212
X5.1575Y-7.6772
X5.1575Y-7.8346
X5.254Y-4.4303
X5.254Y-6.7925
X5.254Y-8.446
X5.254Y-10.8082
X5.277Y-4.2293
X5.277Y-6.5915
X5.277Y-8.245
X5.277Y-10.6072
X5.296Y-3.7763
X5.306Y-4.2033
X5.306Y-6.5655
X5.306Y-8.219
X5.306Y-10.5812
X5.3543Y-3.8976
X5.395Y-3.6013
X5.4921Y-4.5653
X5.4921Y-6.9275
X5.4921Y-8.581
X5.4921Y-10.9432
X5.534Y-4.6233
X5.534Y-6.9855
X5.534Y-8.639
X5.534Y-11.0012
X5.5576Y-4.5433
X5.5576Y-6.9055
X5.5576Y-8.559
X5.5576Y-10.9212
X5.583Y-4.7533
X5.583Y-7.1155
X5.583Y-8.769
X5.583Y-11.1312
X5.628Y-3.8093
X5.6316Y-4.5213
X5.6316Y-6.8835
X5.6316Y-8.537
X5.6316Y-10.8992
X5.634Y-4.7893
X5.634Y-7.1515
X5.634Y-8.805
X5.634Y-11.1672
X5.684Y-4.8123
X5.684Y-7.1745
X5.684Y-8.828
X5.684Y-11.1902
X5.7026Y-4.4983
X5.7026Y-6.8605
X5.7026Y-8.514
X5.7026Y-10.8762
X5.7217Y-2.231
X5.7337Y-4.8343
X5.7337Y-7.1965
X5.7337Y-8.85
X5.7337Y-11.2122
X5.748Y-3.5827
X5.748Y-5.9449
X5.748Y-9.9606
X5.783Y-4.8593
X5.783Y-7.2215
X5.783Y-8.875
X5.783Y-11.2372
X5.8268Y-5.4724
X5.8268Y-7.6772
X5.8268Y-7.8346
X5.8268Y-9.4882
X5.8268Y-11.8504
X5.867Y-10.4423
X5.8837Y-4.4301
X5.8838Y-4.5603
X5.8838Y-6.9225
X5.8838Y-8.576
X5.8838Y-10.9382
X5.885Y-4.9125
X5.885Y-7.2747
X5.885Y-8.9033
X5.885Y-11.2655
X5.886Y-8.08
X5.912Y-12.9685
X5.916Y-4.9283
X5.916Y-7.2905
X5.93Y-8.9003
X5.93Y-11.2625
X5.938Y-8.9711
X5.938Y-11.3333
X5.942Y-4.9533
X5.942Y-7.3155
X5.9449Y-3.5827
X5.9449Y-5.9449
X5.9449Y-9.9606
X5.973Y-8.9013
X5.973Y-11.2635
X5.98Y-8.9353
X5.98Y-11.2975
X6.0028Y-4.5523
X6.0028Y-6.9145
X6.0028Y-8.568
X6.0028Y-10.9302
X6.0236Y-5.4724
X6.0236Y-9.4882
X6.0236Y-11.8504
X6.048Y-8.0343
X6.052Y-8.9363
X6.052Y-11.2985
X6.059Y-4.0811
X6.059Y-4.2033
X6.059Y-6.4433
X6.059Y-6.5655
X6.069Y-10.4422
X6.0827Y-7.6772
X6.0827Y-7.8346
X6.083Y-8.1
X6.083Y-8.219
X6.083Y-10.5812
X6.1417Y-3.5827
X6.1417Y-5.9449
X6.1417Y-9.9606
X6.144Y-4.881
X6.144Y-7.2432
X6.2205Y-5.4724
X6.2205Y-9.4882
X6.2205Y-11.8504
X6.259Y-4.0811
X6.259Y-6.4433
X6.279Y-8.0365
X6.3386Y-7.6772
X6.3386Y-7.8346
X6.3616Y-2.2553
X6.3616Y-2.2828
X6.3616Y-2.3104
X6.3616Y-2.3379
X6.3892Y-2.2553
X6.3892Y-2.2828
X6.3892Y-2.3104
X6.3892Y-2.3379
X6.4167Y-2.2553
X6.4167Y-2.2828
X6.4167Y-2.3104
X6.4167Y-2.3379
X6.4443Y-2.2553
X6.4443Y-2.2828
X6.4443Y-2.3104
X6.4443Y-2.3379
X6.4718Y-2.2553
X6.4718Y-2.2828
X6.4718Y-2.3104
X6.4718Y-2.3379
X6.4771Y-3.7763
X6.5354Y-3.8976
X6.5761Y-3.6013
X6.789Y-3.7773
X6.8565Y-4.8788
X6.8565Y-7.241
X6.8565Y-8.8945
X6.8565Y-11.2567
X6.876Y-9.0153
X6.876Y-11.3775
X6.9291Y-3.5827
X6.9291Y-5.9449
X6.9291Y-9.9606
X6.933Y-8.9733
X6.933Y-11.3355
X7.0079Y-5.4724
X7.0079Y-7.6772
X7.0079Y-7.8346
X7.0079Y-9.4882
X7.0079Y-11.8504
X7.0083Y-2.224
X7.05Y-10.4523
X7.067Y-8.08
X7.126Y-3.5827
X7.126Y-5.9449
X7.126Y-9.9606
X7.145Y-4.5543
X7.145Y-6.9165
X7.145Y-8.57
X7.145Y-10.9322
X7.198Y-8.9743
X7.198Y-11.3365
X7.202Y-4.0983
X7.202Y-4.2033
X7.202Y-6.4605
X7.202Y-6.5655
X7.2047Y-5.4724
X7.2047Y-9.4882
X7.2047Y-11.8504
X7.2056Y-12.9685
X7.222Y-8.0303
X7.263Y-8.1173
X7.2638Y-7.6772
X7.2638Y-7.8346
X7.264Y-8.2193
X7.264Y-10.4493
X7.264Y-10.5815
X7.266Y-4.6263
X7.266Y-6.9885
X7.266Y-8.642
X7.266Y-11.0042
X7.274Y-9.0153
X7.274Y-11.3775
X7.3228Y-3.5827
X7.3228Y-5.9449
X7.3228Y-9.9606
X7.398Y-4.0983
X7.398Y-6.4605
X7.4016Y-5.4724
X7.4016Y-9.4882
X7.4016Y-11.8504
X7.4158Y-4.4983
X7.4158Y-6.8605
X7.4158Y-8.514
X7.4158Y-10.8762
X7.46Y-8.0313
X7.4658Y-4.5213
X7.4658Y-6.8835
X7.4658Y-8.537
X7.4658Y-10.8992
X7.5168Y-4.5433
X7.5168Y-6.9055
X7.5168Y-8.559
X7.5168Y-10.9212
X7.5197Y-7.6772
X7.5197Y-7.8346
X7.54Y-3.7763
X7.5658Y-4.5653
X7.5658Y-6.9275
X7.5658Y-8.581
X7.5658Y-10.9432
X7.581Y-3.1693
X7.5984Y-3.8976
X7.601Y-4.2943
X7.601Y-6.6565
X7.601Y-8.31
X7.601Y-10.6722
X7.602Y-4.3443
X7.602Y-6.7065
X7.602Y-8.36
X7.602Y-10.7222
X7.604Y-2.2833
X7.604Y-2.3108
X7.604Y-2.3384
X7.604Y-2.3659
X7.617Y-4.4313
X7.617Y-6.7935
X7.617Y-8.447
X7.617Y-10.8092
X7.63Y-4.3193
X7.63Y-6.6815
X7.63Y-8.335
X7.63Y-10.6972
X7.631Y-3.0533
X7.6315Y-2.2833
X7.6315Y-2.3108
X7.6315Y-2.3384
X7.6315Y-2.3659
X7.639Y-3.6013
X7.6591Y-2.2833
X7.6591Y-2.3108
X7.6591Y-2.3384
X7.6591Y-2.3659
X7.697Y-3.2463
X7.731Y-3.2713
X7.752Y-3.9963
X7.762Y-3.293
X7.7763Y-3.7763
X7.792Y-3.315
X7.8176Y-2.1493
X7.8176Y-2.1768
X7.8176Y-2.2044
X7.8176Y-2.2319
X7.818Y-3.0538
X7.826Y-3.3383
X7.831Y-2.9053
X7.8346Y-3.8976
X7.8452Y-2.1493
X7.8452Y-2.1768
X7.8452Y-2.2044
X7.8452Y-2.2319
X7.8543Y-4.5653
X7.8543Y-6.9275
X7.8543Y-8.581
X7.8543Y-10.9432
X7.859Y-3.3593
X7.8727Y-2.1493
X7.8727Y-2.1768
X7.8727Y-2.2044
X7.8727Y-2.2319
X7.8753Y-3.6013
X7.881Y-3.032
X7.886Y-3.3793
X7.896Y-4.6243
X7.896Y-6.9865
X7.896Y-8.64
X7.896Y-11.0022
X7.9003Y-2.1493
X7.9003Y-2.1768
X7.9003Y-2.2044
X7.9003Y-2.2319
X7.9138Y-3.401
X7.9198Y-4.5433
X7.9198Y-6.9055
X7.9198Y-8.559
X7.9198Y-10.9212
X7.9278Y-2.1493
X7.9278Y-2.1768
X7.9278Y-2.2044
X7.9278Y-2.2319
X7.946Y-4.6883
X7.946Y-7.0505
X7.946Y-8.704
X7.946Y-11.0662
X7.963Y-3.2223
X7.9938Y-4.5213
X7.9938Y-6.8835
X7.9938Y-8.537
X7.9938Y-10.8992
X7.994Y-2.9053
X7.996Y-4.7103
X7.996Y-7.0725
X7.996Y-8.726
X7.996Y-11.0882
X8.023Y-4.8253
X8.023Y-7.1875
X8.023Y-8.841
X8.023Y-11.2032
X8.025Y-3.9883
X8.046Y-4.7313
X8.046Y-7.0935
X8.046Y-8.747
X8.046Y-11.1092
X8.054Y-4.8493
X8.054Y-7.2115
X8.054Y-8.865
X8.054Y-11.2272
X8.0648Y-4.4983
X8.0648Y-6.8605
X8.0648Y-8.514
X8.0648Y-10.8762
X8.066Y-9.0123
X8.066Y-11.3745
X8.071Y-4.8743
X8.071Y-7.2365
X8.071Y-8.89
X8.071Y-11.2522
X8.092Y-4.8983
X8.092Y-7.2605
X8.092Y-8.914
X8.092Y-11.2762
X8.105Y-2.9923
X8.1102Y-3.5827
X8.1102Y-5.9449
X8.1102Y-9.9606
X8.114Y-4.9213
X8.114Y-7.2835
X8.114Y-8.937
X8.114Y-11.2992
X8.146Y-4.8743
X8.146Y-7.2365
X8.146Y-8.89
X8.146Y-11.2522
X8.189Y-5.4724
X8.189Y-7.6772
X8.189Y-7.8346
X8.189Y-9.4882
X8.189Y-11.8504
X8.196Y-4.8493
X8.196Y-7.2115
X8.196Y-8.865
X8.196Y-11.2272
X8.246Y-4.5603
X8.246Y-4.8243
X8.246Y-6.9225
X8.246Y-7.1865
X8.246Y-8.576
X8.246Y-8.84
X8.246Y-10.9382
X8.246Y-11.2022
X8.248Y-8.08
X8.248Y-10.4422
X8.255Y-9.0153
X8.255Y-11.3775
X8.2625Y-8.937
X8.2625Y-11.2992
X8.3062Y-2.2283
X8.3071Y-3.5827
X8.3071Y-5.9449
X8.3071Y-9.9606
X8.365Y-4.5523
X8.365Y-6.9145
X8.365Y-8.568
X8.365Y-10.9302
X8.382Y-4.1073
X8.382Y-4.2014
X8.382Y-6.4695
X8.382Y-6.5636
X8.382Y-8.1063
X8.382Y-8.2171
X8.382Y-10.4685
X8.382Y-10.5793
X8.3858Y-5.4724
X8.3858Y-9.4882
X8.3858Y-11.8504
X8.4449Y-7.6772
X8.4449Y-7.8346
X8.45Y-9.0153
X8.45Y-11.3775
X8.4992Y-12.9685
X8.5039Y-3.5827
X8.5039Y-5.9449
X8.5039Y-9.9606
X8.5291Y-4.8463
X8.5291Y-4.8718
X8.5291Y-7.2085
X8.5291Y-7.234
X8.5291Y-8.862
X8.5291Y-8.8876
X8.5291Y-11.2242
X8.5291Y-11.2498
X8.579Y-4.1083
X8.579Y-4.2653
X8.579Y-6.4705
X8.579Y-6.6275
X8.579Y-8.281
X8.579Y-10.6432
X8.5827Y-5.4724
X8.5827Y-9.4882
X8.5827Y-11.8504
X8.7008Y-7.6772
X8.7008Y-7.8346
X8.773Y-3.9563
X8.828Y-2.7013
X8.8386Y-12.3819
X8.8393Y-3.7763
X8.8976Y-3.8976
X8.936Y-3.1533
X8.9383Y-3.6013
X9.13Y-4.8233
X9.13Y-7.1855
X9.13Y-8.839
X9.13Y-11.2012
X9.203Y-4.8233
X9.203Y-7.1855
X9.203Y-8.839
X9.203Y-11.2012
X9.232Y-4.8463
X9.232Y-7.2085
X9.232Y-8.862
X9.232Y-11.2242
X9.2429Y-4.8694
X9.2429Y-7.2316
X9.2429Y-8.8852
X9.2429Y-11.2474
X9.255Y-8.8163
X9.255Y-11.1785
X9.279Y-4.7313
X9.279Y-7.0935
X9.279Y-8.747
X9.279Y-11.1092
X9.2913Y-3.5827
X9.2913Y-5.9449
X9.2913Y-9.9606
X9.293Y-4.9503
X9.293Y-7.3125
X9.293Y-8.966
X9.293Y-11.3282
X9.3498Y-4.6873
X9.3498Y-7.0495
X9.3498Y-8.703
X9.3498Y-11.0652
X9.3701Y-5.4724
X9.3701Y-7.6772
X9.3701Y-7.8346
X9.3701Y-9.4882
X9.3701Y-11.8504
X9.414Y-10.4673
X9.415Y-8.9783
X9.415Y-11.3405
X9.4177Y-8.9111
X9.4177Y-11.2733
X9.4178Y-8.817
X9.4178Y-11.1792
X9.4291Y-12.3819
X9.467Y-8.1013
X9.4882Y-3.5827
X9.4882Y-5.9449
X9.4882Y-9.9606
X9.491Y-8.9783
X9.491Y-11.3405
X9.507Y-4.5523
X9.507Y-6.9145
X9.507Y-8.568
X9.507Y-10.9302
X9.563Y-4.1093
X9.563Y-4.2033
X9.563Y-6.4715
X9.563Y-6.5655
X9.563Y-8.125
X9.563Y-8.219
X9.563Y-10.4872
X9.563Y-10.5812
X9.5669Y-5.4724
X9.5669Y-9.4882
X9.5669Y-11.8504
X9.589Y-4.3713
X9.589Y-6.7335
X9.589Y-8.387
X9.589Y-10.7492
X9.5998Y-2.2283
X9.626Y-7.6772
X9.626Y-7.8346
X9.626Y-12.3819
X9.626Y-3.1533
X9.627Y-4.6263
X9.627Y-6.9885
X9.627Y-8.642
X9.627Y-11.0042
X9.685Y-3.5827
X9.685Y-5.9449
X9.685Y-9.9606
X9.688Y-4.8013
X9.688Y-7.1635
X9.76Y-4.1283
X9.76Y-6.4905
X9.76Y-8.1513
X9.7638Y-5.4724
X9.7638Y-9.4882
X9.7638Y-11.8504
X9.778Y-4.4983
X9.778Y-6.8605
X9.778Y-8.514
X9.778Y-10.8762
X9.7901Y-12.9658
X9.817Y-3.8523
X9.823Y-3.1533
X9.823Y-8.0363
X9.828Y-4.2553
X9.828Y-6.6175
X9.828Y-8.271
X9.828Y-10.6332
X9.828Y-4.5213
X9.828Y-6.8835
X9.828Y-8.537
X9.828Y-10.8992
X9.841Y-3.8243
X9.879Y-4.5433
X9.879Y-6.9055
X9.879Y-8.559
X9.879Y-10.9212
X9.8819Y-7.6772
X9.8819Y-7.8346
X9.928Y-4.5653
X9.928Y-6.9275
X9.928Y-8.581
X9.928Y-10.9432
X9.941Y-3.1533
X9.974Y-3.8243
X9.979Y-4.4303
X9.979Y-6.7925
X9.979Y-8.446
X9.979Y-10.8082
X10.0204Y-3.7763
X10.033Y-2.7343
X10.033Y-2.8073
X10.0787Y-3.8976
X10.1194Y-3.6013
X10.129Y-2.7123
X10.1575Y-12.874
X10.2165Y-4.5653
X10.2165Y-6.9275
X10.2165Y-8.581
X10.2165Y-10.9432
X10.2165Y-12.3819
X10.2283Y-2.735
X10.258Y-4.6243
X10.258Y-6.9865
X10.258Y-8.64
X10.258Y-11.0022
X10.282Y-4.5433
X10.282Y-6.9055
X10.282Y-8.559
X10.282Y-10.9212
X10.2939Y-4.8896
X10.2939Y-7.2518
X10.2939Y-8.9054
X10.2939Y-11.2676
X10.3076Y-4.8679
X10.3076Y-7.2301
X10.3076Y-8.8836
X10.3076Y-11.2458
X10.313Y-4.3163
X10.3237Y-4.8461
X10.3237Y-7.2083
X10.3237Y-8.8619
X10.3237Y-11.2241
X10.328Y-2.7373
X10.3351Y-4.8233
X10.3351Y-7.1855
X10.3351Y-8.839
X10.3351Y-11.2012
X10.356Y-4.5213
X10.356Y-6.8835
X10.356Y-8.537
X10.356Y-10.8992
X10.367Y-4.8244
X10.367Y-7.1866
X10.367Y-8.8401
X10.367Y-11.2023
X10.373Y-4.3163
X10.3931Y-4.7763
X10.3931Y-7.1385
X10.3931Y-8.792
X10.3931Y-11.1542
X10.402Y-2.7463
X10.409Y-4.5653
X10.4134Y-12.3819
X10.4141Y-4.7983
X10.4141Y-7.1605
X10.4141Y-8.814
X10.4141Y-11.1762
X10.423Y-2.7249
X10.427Y-4.4983
X10.427Y-6.8605
X10.427Y-8.514
X10.427Y-10.8762
X10.435Y-4.3163
X10.4581Y-4.688
X10.4581Y-7.0503
X10.4581Y-8.7038
X10.4581Y-11.066
X10.467Y-4.3163
X10.4724Y-3.5827
X10.4724Y-5.9449
X10.4724Y-9.9606
X10.476Y-4.9503
X10.476Y-7.3125
X10.546Y-10.4863
X10.546Y-10.6293
X10.5512Y-5.4724
X10.5512Y-7.6772
X10.5512Y-7.8346
X10.5512Y-9.4882
X10.5512Y-11.8504
X10.611Y-8.0513
X10.611Y-8.2691
X10.619Y-8.7923
X10.619Y-11.1545
X10.661Y-4.5983
X10.661Y-6.9605
X10.661Y-8.614
X10.661Y-10.9762
X10.6693Y-3.5827
X10.6693Y-5.9449
X10.6693Y-9.9606
X10.672Y-4.7315
X10.672Y-7.0937
X10.672Y-8.7473
X10.672Y-11.1095
X10.7087Y-12.874
X10.7283Y-4.6593
X10.7283Y-7.0223
X10.7283Y-8.6753
X10.7283Y-11.0383
X10.744Y-4.1103
X10.744Y-4.2043
X10.744Y-6.4725
X10.744Y-6.5665
X10.744Y-8.126
X10.744Y-8.22
X10.744Y-10.4882
X10.744Y-10.5822
X10.748Y-5.4724
X10.748Y-9.4882
X10.748Y-11.8504
X10.7838Y-10.943
X10.8071Y-7.6772
X10.8071Y-7.8346
X10.847Y-4.4995
X10.8473Y-4.5435
X10.859Y-4.5803
X10.8661Y-3.5827
X10.8661Y-5.9449
X10.8661Y-9.9606
X10.8671Y-10.9212
X10.869Y-4.7763
X10.869Y-7.1385
X10.869Y-8.9173
X10.869Y-11.2795
X10.8812Y-4.5341
X10.8934Y-2.2283
X10.9288Y-10.899
X10.942Y-4.1103
X10.942Y-4.2223
X10.942Y-6.4725
X10.942Y-6.5845
X10.9449Y-5.4724
X10.9449Y-9.4882
X10.9449Y-11.8504
X10.9898Y-10.877
X11.0039Y-12.3819
X11.012Y-3.8523
X11.0182Y-12.8543
X11.063Y-7.6772
X11.063Y-7.8346
X11.122Y-6.5053
X11.122Y-6.6223
X11.122Y-6.9273
X11.122Y-8.1543
X11.122Y-8.2593
X11.122Y-8.5808
X11.122Y-10.5203
X11.122Y-10.6253
X11.148Y-6.5053
X11.148Y-6.6223
X11.148Y-6.9053
X11.148Y-8.1543
X11.148Y-8.2593
X11.148Y-8.5588
X11.148Y-10.5203
X11.148Y-10.6253
X11.174Y-6.5053
X11.174Y-6.6223
X11.174Y-6.8833
X11.174Y-8.1543
X11.174Y-8.2593
X11.174Y-8.5368
X11.174Y-10.5203
X11.174Y-10.6253
X11.1996Y-6.5053
X11.1996Y-8.1538
X11.1996Y-10.5198
X11.2Y-6.6223
X11.2Y-6.8613
X11.2Y-8.2593
X11.2Y-8.5148
X11.2Y-10.6253
X11.2015Y-3.7763
X11.2402Y-12.3819
X11.2598Y-3.8976
X11.2598Y-12.874
X11.3005Y-3.6013
X11.452Y-4.7803
X11.452Y-7.1425
X11.616Y-8.7693
X11.616Y-11.1315
X11.6535Y-3.5827
X11.6535Y-5.9449
X11.6535Y-9.9606
X11.657Y-4.9493
X11.657Y-7.3115
X11.657Y-8.965
X11.657Y-11.3272
X11.728Y-10.4793
X11.729Y-10.5953
X11.7323Y-5.4724
X11.7323Y-7.6772
X11.7323Y-7.8346
X11.7323Y-9.4882
X11.7323Y-11.8504
X11.792Y-8.0323
X11.792Y-8.2313
X11.811Y-12.874
X11.815Y-10.5453
X11.8307Y-12.3819
X11.8504Y-3.5827
X11.8504Y-5.9449
X11.8504Y-9.9606
X11.854Y-4.9493
X11.854Y-7.3115
X11.854Y-8.965
X11.854Y-11.3272
X11.911Y-8.0523
X11.9291Y-5.4724
X11.9291Y-9.4882
X11.9291Y-11.8504
X11.9882Y-7.6772
X11.9882Y-7.8346
X12.0472Y-3.5827
X12.0472Y-5.9449
X12.0472Y-9.9606
X12.0669Y-12.3819
X12.123Y-10.4783
X12.126Y-5.4724
X12.126Y-9.4882
X12.126Y-11.8504
X12.185Y-8.0383
X12.187Y-2.3465
X12.2441Y-7.6772
X12.2441Y-7.8346
X12.262Y-12.7503
X12.3622Y-12.874
X12.6575Y-12.3819
X13.0052Y-5.6824
X13.0066Y-9.5617
X13.0079Y-3.0925
X13.0079Y-4.3861
X13.0079Y-6.9733
X13.0079Y-8.2669
X13.0079Y-10.854
X13.0079Y-12.1476
T3
X8.8283Y-2.3346
X8.8283Y-3.3346
X8.9283Y-2.3346
X8.9283Y-3.3346
X9.0283Y-2.3346
X9.0283Y-3.3346
X9.1283Y-2.3346
X9.1283Y-3.3346
X9.2283Y-2.3346
X9.2283Y-3.3346
X9.3283Y-2.3346
X9.3283Y-3.3346
X9.4283Y-2.3346
X9.4283Y-3.3346
X9.5283Y-2.3346
X9.5283Y-3.3346
X9.6283Y-2.3346
X9.6283Y-3.3346
X9.7283Y-2.3346
X9.7283Y-3.3346
X9.8283Y-2.3346
X9.8283Y-3.3346
X9.9283Y-2.3346
X9.9283Y-3.3346
X10.0283Y-2.3346
X10.0283Y-3.3346
X10.1283Y-2.3346
X10.1283Y-3.3346
X10.2283Y-2.3346
X10.2283Y-3.3346
X10.3283Y-2.3346
X10.3283Y-3.3346
X10.4283Y-2.3346
X10.4283Y-3.3346
X10.5283Y-2.3346
X10.5283Y-3.3346
X10.6283Y-2.3346
X10.6283Y-3.3346
T4
X3.4252Y-3.937
X3.4252Y-5.1181
X3.4252Y-6.2992
X3.4252Y-7.4803
X3.4252Y-7.9528
X3.4252Y-9.1339
X3.4252Y-10.315
X3.4252Y-11.4961
X3.622Y-3.937
X3.622Y-5.1181
X3.622Y-6.2992
X3.622Y-7.4803
X3.622Y-7.9528
X3.622Y-9.1339
X3.622Y-10.315
X3.622Y-11.4961
X3.8189Y-3.937
X3.8189Y-5.1181
X3.8189Y-6.2992
X3.8189Y-7.4803
X3.8189Y-7.9528
X3.8189Y-9.1339
X3.8189Y-10.315
X3.8189Y-11.4961
X4.2126Y-3.5039
X4.6063Y-3.937
X4.6063Y-5.1181
X4.6063Y-6.2992
X4.6063Y-7.4803
X4.6063Y-7.9528
X4.6063Y-9.1339
X4.6063Y-10.315
X4.6063Y-11.4961
X4.8031Y-3.937
X4.8031Y-5.1181
X4.8031Y-6.2992
X4.8031Y-7.4803
X4.8031Y-7.9528
X4.8031Y-9.1339
X4.8031Y-10.315
X4.8031Y-11.4961
X5.0Y-3.937
X5.0Y-5.1181
X5.0Y-6.2992
X5.0Y-7.4803
X5.0Y-7.9528
X5.0Y-9.1339
X5.0Y-10.315
X5.0Y-11.4961
X5.3937Y-3.5039
X5.7874Y-3.937
X5.7874Y-5.1181
X5.7874Y-6.2992
X5.7874Y-7.4803
X5.7874Y-7.9528
X5.7874Y-9.1339
X5.7874Y-10.315
X5.7874Y-11.4961
X5.9843Y-3.937
X5.9843Y-5.1181
X5.9843Y-6.2992
X5.9843Y-7.4803
X5.9843Y-7.9528
X5.9843Y-9.1339
X5.9843Y-10.315
X5.9843Y-11.4961
X6.1811Y-3.937
X6.1811Y-5.1181
X6.1811Y-6.2992
X6.1811Y-7.4803
X6.1811Y-7.9528
X6.1811Y-9.1339
X6.1811Y-10.315
X6.1811Y-11.4961
X6.4197Y-2.1409
X6.4197Y-2.4409
X6.5748Y-3.5039
X6.6165Y-2.1409
X6.6165Y-2.4409
X6.9685Y-3.937
X6.9685Y-5.1181
X6.9685Y-6.2992
X6.9685Y-7.4803
X6.9685Y-7.9528
X6.9685Y-9.1339
X6.9685Y-10.315
X6.9685Y-11.4961
X7.1654Y-3.937
X7.1654Y-5.1181
X7.1654Y-6.2992
X7.1654Y-7.4803
X7.1654Y-7.9528
X7.1654Y-9.1339
X7.1654Y-10.315
X7.1654Y-11.4961
X7.3622Y-3.937
X7.3622Y-5.1181
X7.3622Y-6.2992
X7.3622Y-7.4803
X7.3622Y-7.9528
X7.3622Y-9.1339
X7.3622Y-10.315
X7.3622Y-11.4961
X7.6378Y-3.5039
X7.874Y-3.5039
X8.1496Y-3.937
X8.1496Y-5.1181
X8.1496Y-6.2992
X8.1496Y-7.4803
X8.1496Y-7.9528
X8.1496Y-9.1339
X8.1496Y-10.315
X8.1496Y-11.4961
X8.3465Y-3.937
X8.3465Y-5.1181
X8.3465Y-6.2992
X8.3465Y-7.4803
X8.3465Y-7.9528
X8.3465Y-9.1339
X8.3465Y-10.315
X8.3465Y-11.4961
X8.5433Y-3.937
X8.5433Y-5.1181
X8.5433Y-6.2992
X8.5433Y-7.4803
X8.5433Y-7.9528
X8.5433Y-9.1339
X8.5433Y-10.315
X8.5433Y-11.4961
X8.937Y-3.5039
X9.3307Y-3.937
X9.3307Y-5.1181
X9.3307Y-6.2992
X9.3307Y-7.4803
X9.3307Y-7.9528
X9.3307Y-9.1339
X9.3307Y-10.315
X9.3307Y-11.4961
X9.5276Y-3.937
X9.5276Y-5.1181
X9.5276Y-6.2992
X9.5276Y-7.4803
X9.5276Y-7.9528
X9.5276Y-9.1339
X9.5276Y-10.315
X9.5276Y-11.4961
X9.7244Y-3.937
X9.7244Y-5.1181
X9.7244Y-6.2992
X9.7244Y-7.4803
X9.7244Y-7.9528
X9.7244Y-9.1339
X9.7244Y-10.315
X9.7244Y-11.4961
X10.1181Y-3.5039
X10.5118Y-3.937
X10.5118Y-5.1181
X10.5118Y-6.2992
X10.5118Y-7.4803
X10.5118Y-7.9528
X10.5118Y-9.1339
X10.5118Y-10.315
X10.5118Y-11.4961
X10.7087Y-3.937
X10.7087Y-5.1181
X10.7087Y-6.2992
X10.7087Y-7.4803
X10.7087Y-7.9528
X10.7087Y-9.1339
X10.7087Y-10.315
X10.7087Y-11.4961
X10.9055Y-3.937
X10.9055Y-5.1181
X10.9055Y-6.2992
X10.9055Y-7.4803
X10.9055Y-7.9528
X10.9055Y-9.1339
X10.9055Y-10.315
X10.9055Y-11.4961
X11.2992Y-3.5039
X11.6929Y-3.937
X11.6929Y-5.1181
X11.6929Y-6.2992
X11.6929Y-7.4803
X11.6929Y-7.9528
X11.6929Y-9.1339
X11.6929Y-10.315
X11.6929Y-11.4961
X11.8898Y-3.937
X11.8898Y-5.1181
X11.8898Y-6.2992
X11.8898Y-7.4803
X11.8898Y-7.9528
X11.8898Y-9.1339
X11.8898Y-10.315
X11.8898Y-11.4961
X12.0866Y-3.937
X12.0866Y-5.1181
X12.0866Y-6.2992
X12.0866Y-7.4803
X12.0866Y-7.9528
X12.0866Y-9.1339
X12.0866Y-10.315
X12.0866Y-11.4961
T2
G00X7.7953Y-2.3228
M15
G01X7.7165Y-2.3228
M16
G05
G00X7.7953Y-2.5591
M15
G01X7.7165Y-2.5591
M16
G05
G00X7.9409Y-2.4016
M15
G01X7.9409Y-2.4803
M16
G05
T0
M30
