G04 #@! TF.GenerationSoftware,KiCad,Pcbnew,(5.1.10)-1*
G04 #@! TF.CreationDate,2021-11-18T01:54:33+08:00*
G04 #@! TF.ProjectId,8x8x8-RGB-LED-Cube-PCB,38783878-382d-4524-9742-2d4c45442d43,rev?*
G04 #@! TF.SameCoordinates,Original*
G04 #@! TF.FileFunction,Soldermask,Top*
G04 #@! TF.FilePolarity,Negative*
%FSLAX46Y46*%
G04 Gerber Fmt 4.6, Leading zero omitted, Abs format (unit mm)*
G04 Created by KiCad (PCBNEW (5.1.10)-1) date 2021-11-18 01:54:33*
%MOMM*%
%LPD*%
G01*
G04 APERTURE LIST*
%ADD10C,2.400000*%
%ADD11R,2.400000X2.400000*%
%ADD12C,3.200000*%
%ADD13C,2.800000*%
%ADD14R,1.560000X1.560000*%
%ADD15C,1.560000*%
%ADD16R,3.500000X3.500000*%
G04 APERTURE END LIST*
D10*
X168060000Y-54380000D03*
X163060000Y-54380000D03*
X163060000Y-62000000D03*
D11*
X168060000Y-62000000D03*
D12*
X332000000Y-61000000D03*
X62000000Y-61000000D03*
X62000000Y-331000000D03*
X332000000Y-331000000D03*
D13*
X287000000Y-89000000D03*
X257000000Y-89000000D03*
X227000000Y-89000000D03*
X200000000Y-89000000D03*
X194000000Y-89000000D03*
X167000000Y-89000000D03*
X137000000Y-89000000D03*
X107000000Y-89000000D03*
X297000000Y-292000000D03*
X267000000Y-292000000D03*
X237000000Y-292000000D03*
X207000000Y-292000000D03*
X177000000Y-292000000D03*
X147000000Y-292000000D03*
X117000000Y-292000000D03*
X87000000Y-292000000D03*
X302000000Y-292000000D03*
X272000000Y-292000000D03*
X242000000Y-292000000D03*
X212000000Y-292000000D03*
X182000000Y-292000000D03*
X152000000Y-292000000D03*
X122000000Y-292000000D03*
X92000000Y-292000000D03*
X307000000Y-292000000D03*
X277000000Y-292000000D03*
X247000000Y-292000000D03*
X217000000Y-292000000D03*
X187000000Y-292000000D03*
X157000000Y-292000000D03*
X127000000Y-292000000D03*
X97000000Y-292000000D03*
X297000000Y-262000000D03*
X267000000Y-262000000D03*
X237000000Y-262000000D03*
X207000000Y-262000000D03*
X177000000Y-262000000D03*
X147000000Y-262000000D03*
X117000000Y-262000000D03*
X87000000Y-262000000D03*
X302000000Y-262000000D03*
X272000000Y-262000000D03*
X242000000Y-262000000D03*
X212000000Y-262000000D03*
X182000000Y-262000000D03*
X152000000Y-262000000D03*
X122000000Y-262000000D03*
X92000000Y-262000000D03*
X307000000Y-262000000D03*
X277000000Y-262000000D03*
X247000000Y-262000000D03*
X217000000Y-262000000D03*
X187000000Y-262000000D03*
X157000000Y-262000000D03*
X127000000Y-262000000D03*
X97000000Y-262000000D03*
X297000000Y-232000000D03*
X267000000Y-232000000D03*
X237000000Y-232000000D03*
X207000000Y-232000000D03*
X177000000Y-232000000D03*
X147000000Y-232000000D03*
X117000000Y-232000000D03*
X87000000Y-232000000D03*
X302000000Y-232000000D03*
X272000000Y-232000000D03*
X242000000Y-232000000D03*
X212000000Y-232000000D03*
X182000000Y-232000000D03*
X152000000Y-232000000D03*
X122000000Y-232000000D03*
X92000000Y-232000000D03*
X307000000Y-232000000D03*
X277000000Y-232000000D03*
X247000000Y-232000000D03*
X217000000Y-232000000D03*
X187000000Y-232000000D03*
X157000000Y-232000000D03*
X127000000Y-232000000D03*
X97000000Y-232000000D03*
X297000000Y-202000000D03*
X267000000Y-202000000D03*
X237000000Y-202000000D03*
X207000000Y-202000000D03*
X177000000Y-202000000D03*
X147000000Y-202000000D03*
X117000000Y-202000000D03*
X87000000Y-202000000D03*
X302000000Y-202000000D03*
X272000000Y-202000000D03*
X242000000Y-202000000D03*
X212000000Y-202000000D03*
X182000000Y-202000000D03*
X152000000Y-202000000D03*
X122000000Y-202000000D03*
X92000000Y-202000000D03*
X307000000Y-202000000D03*
X277000000Y-202000000D03*
X247000000Y-202000000D03*
X217000000Y-202000000D03*
X187000000Y-202000000D03*
X157000000Y-202000000D03*
X127000000Y-202000000D03*
X97000000Y-202000000D03*
X307000000Y-190000000D03*
X277000000Y-190000000D03*
X247000000Y-190000000D03*
X217000000Y-190000000D03*
X187000000Y-190000000D03*
X157000000Y-190000000D03*
X127000000Y-190000000D03*
X97000000Y-190000000D03*
X302000000Y-190000000D03*
X272000000Y-190000000D03*
X242000000Y-190000000D03*
X212000000Y-190000000D03*
X182000000Y-190000000D03*
X152000000Y-190000000D03*
X122000000Y-190000000D03*
X92000000Y-190000000D03*
X297000000Y-190000000D03*
X267000000Y-190000000D03*
X237000000Y-190000000D03*
X207000000Y-190000000D03*
X177000000Y-190000000D03*
X147000000Y-190000000D03*
X117000000Y-190000000D03*
X87000000Y-190000000D03*
X307000000Y-160000000D03*
X277000000Y-160000000D03*
X247000000Y-160000000D03*
X217000000Y-160000000D03*
X187000000Y-160000000D03*
X157000000Y-160000000D03*
X127000000Y-160000000D03*
X97000000Y-160000000D03*
X302000000Y-160000000D03*
X272000000Y-160000000D03*
X242000000Y-160000000D03*
X212000000Y-160000000D03*
X182000000Y-160000000D03*
X152000000Y-160000000D03*
X122000000Y-160000000D03*
X92000000Y-160000000D03*
X297000000Y-160000000D03*
X267000000Y-160000000D03*
X237000000Y-160000000D03*
X207000000Y-160000000D03*
X177000000Y-160000000D03*
X147000000Y-160000000D03*
X117000000Y-160000000D03*
X87000000Y-160000000D03*
X307000000Y-130000000D03*
X277000000Y-130000000D03*
X247000000Y-130000000D03*
X217000000Y-130000000D03*
X187000000Y-130000000D03*
X157000000Y-130000000D03*
X127000000Y-130000000D03*
X97000000Y-130000000D03*
X302000000Y-130000000D03*
X272000000Y-130000000D03*
X242000000Y-130000000D03*
X212000000Y-130000000D03*
X182000000Y-130000000D03*
X152000000Y-130000000D03*
X122000000Y-130000000D03*
X92000000Y-130000000D03*
X297000000Y-130000000D03*
X267000000Y-130000000D03*
X237000000Y-130000000D03*
X207000000Y-130000000D03*
X177000000Y-130000000D03*
X147000000Y-130000000D03*
X117000000Y-130000000D03*
X87000000Y-130000000D03*
X307000000Y-100000000D03*
X277000000Y-100000000D03*
X247000000Y-100000000D03*
X217000000Y-100000000D03*
X187000000Y-100000000D03*
X157000000Y-100000000D03*
X127000000Y-100000000D03*
X97000000Y-100000000D03*
X302000000Y-100000000D03*
X272000000Y-100000000D03*
X242000000Y-100000000D03*
X212000000Y-100000000D03*
X182000000Y-100000000D03*
X152000000Y-100000000D03*
X122000000Y-100000000D03*
X92000000Y-100000000D03*
X297000000Y-100000000D03*
X267000000Y-100000000D03*
X237000000Y-100000000D03*
X207000000Y-100000000D03*
X177000000Y-100000000D03*
X147000000Y-100000000D03*
X117000000Y-100000000D03*
X87000000Y-100000000D03*
D14*
X224240000Y-59300000D03*
D15*
X226780000Y-59300000D03*
X269960000Y-59300000D03*
X229320000Y-59300000D03*
X231860000Y-59300000D03*
X234400000Y-59300000D03*
X236940000Y-59300000D03*
X239480000Y-59300000D03*
X242020000Y-59300000D03*
X244560000Y-59300000D03*
X247100000Y-59300000D03*
X249640000Y-59300000D03*
X252180000Y-59300000D03*
X254720000Y-59300000D03*
X257260000Y-59300000D03*
X259800000Y-59300000D03*
X262340000Y-59300000D03*
X264880000Y-59300000D03*
X267420000Y-59300000D03*
X224240000Y-84700000D03*
X226780000Y-84700000D03*
X229320000Y-84700000D03*
X231860000Y-84700000D03*
X234400000Y-84700000D03*
X236940000Y-84700000D03*
X239480000Y-84700000D03*
X242020000Y-84700000D03*
X244560000Y-84700000D03*
X247100000Y-84700000D03*
X249640000Y-84700000D03*
X252180000Y-84700000D03*
X254720000Y-84700000D03*
X257260000Y-84700000D03*
X259800000Y-84700000D03*
X262340000Y-84700000D03*
X264880000Y-84700000D03*
X267420000Y-84700000D03*
X269960000Y-84700000D03*
D16*
X197000000Y-65000000D03*
G36*
G01*
X196000000Y-57500000D02*
X198000000Y-57500000D01*
G75*
G02*
X198750000Y-58250000I0J-750000D01*
G01*
X198750000Y-59750000D01*
G75*
G02*
X198000000Y-60500000I-750000J0D01*
G01*
X196000000Y-60500000D01*
G75*
G02*
X195250000Y-59750000I0J750000D01*
G01*
X195250000Y-58250000D01*
G75*
G02*
X196000000Y-57500000I750000J0D01*
G01*
G37*
G36*
G01*
X200825000Y-60250000D02*
X202575000Y-60250000D01*
G75*
G02*
X203450000Y-61125000I0J-875000D01*
G01*
X203450000Y-62875000D01*
G75*
G02*
X202575000Y-63750000I-875000J0D01*
G01*
X200825000Y-63750000D01*
G75*
G02*
X199950000Y-62875000I0J875000D01*
G01*
X199950000Y-61125000D01*
G75*
G02*
X200825000Y-60250000I875000J0D01*
G01*
G37*
M02*
